<?xml version="1.0" encoding="utf-8" standalone="no"?>
<!DOCTYPE svg PUBLIC "-//W3C//DTD SVG 1.1//EN"
  "http://www.w3.org/Graphics/SVG/1.1/DTD/svg11.dtd">
<svg xmlns:xlink="http://www.w3.org/1999/xlink" width="720pt" height="720pt" viewBox="0 0 720 720" xmlns="http://www.w3.org/2000/svg" version="1.1">
 <metadata>
  <rdf:RDF xmlns:dc="http://purl.org/dc/elements/1.1/" xmlns:cc="http://creativecommons.org/ns#" xmlns:rdf="http://www.w3.org/1999/02/22-rdf-syntax-ns#">
   <cc:Work>
    <dc:type rdf:resource="http://purl.org/dc/dcmitype/StillImage"/>
    <dc:date>2022-12-03T18:24:24.053420</dc:date>
    <dc:format>image/svg+xml</dc:format>
    <dc:creator>
     <cc:Agent>
      <dc:title>Matplotlib v3.5.3, https://matplotlib.org/</dc:title>
     </cc:Agent>
    </dc:creator>
   </cc:Work>
  </rdf:RDF>
 </metadata>
 <defs>
  <style type="text/css">*{stroke-linejoin: round; stroke-linecap: butt}</style>
 </defs>
 <g id="figure_1">
  <g id="patch_1">
   <path d="M 0 720 
L 720 720 
L 720 0 
L 0 0 
z
" style="fill: #ffffff"/>
  </g>
  <g id="axes_1">
   <g id="patch_2">
    <path d="M 90 640.8 
L 648 640.8 
L 648 86.4 
L 90 86.4 
z
" style="fill: #ffffff"/>
   </g>
   <g id="matplotlib.axis_1">
    <g id="xtick_1">
     <g id="line2d_1">
      <defs>
       <path id="m77b501a2a1" d="M 0 0 
L 0 3.5 
" style="stroke: #000000; stroke-width: 0.8"/>
      </defs>
      <g>
       <use xlink:href="#m77b501a2a1" x="115.363636" y="640.8" style="stroke: #000000; stroke-width: 0.8"/>
      </g>
     </g>
     <g id="text_1">
      <!-- 0 -->
      <g transform="translate(112.182386 655.398438)scale(0.1 -0.1)">
       <defs>
        <path id="DejaVuSans-30" d="M 2034 4250 
Q 1547 4250 1301 3770 
Q 1056 3291 1056 2328 
Q 1056 1369 1301 889 
Q 1547 409 2034 409 
Q 2525 409 2770 889 
Q 3016 1369 3016 2328 
Q 3016 3291 2770 3770 
Q 2525 4250 2034 4250 
z
M 2034 4750 
Q 2819 4750 3233 4129 
Q 3647 3509 3647 2328 
Q 3647 1150 3233 529 
Q 2819 -91 2034 -91 
Q 1250 -91 836 529 
Q 422 1150 422 2328 
Q 422 3509 836 4129 
Q 1250 4750 2034 4750 
z
" transform="scale(0.015625)"/>
       </defs>
       <use xlink:href="#DejaVuSans-30"/>
      </g>
     </g>
    </g>
    <g id="xtick_2">
     <g id="line2d_2">
      <g>
       <use xlink:href="#m77b501a2a1" x="185.818182" y="640.8" style="stroke: #000000; stroke-width: 0.8"/>
      </g>
     </g>
     <g id="text_2">
      <!-- 10 -->
      <g transform="translate(179.455682 655.398438)scale(0.1 -0.1)">
       <defs>
        <path id="DejaVuSans-31" d="M 794 531 
L 1825 531 
L 1825 4091 
L 703 3866 
L 703 4441 
L 1819 4666 
L 2450 4666 
L 2450 531 
L 3481 531 
L 3481 0 
L 794 0 
L 794 531 
z
" transform="scale(0.015625)"/>
       </defs>
       <use xlink:href="#DejaVuSans-31"/>
       <use xlink:href="#DejaVuSans-30" x="63.623047"/>
      </g>
     </g>
    </g>
    <g id="xtick_3">
     <g id="line2d_3">
      <g>
       <use xlink:href="#m77b501a2a1" x="256.272727" y="640.8" style="stroke: #000000; stroke-width: 0.8"/>
      </g>
     </g>
     <g id="text_3">
      <!-- 20 -->
      <g transform="translate(249.910227 655.398438)scale(0.1 -0.1)">
       <defs>
        <path id="DejaVuSans-32" d="M 1228 531 
L 3431 531 
L 3431 0 
L 469 0 
L 469 531 
Q 828 903 1448 1529 
Q 2069 2156 2228 2338 
Q 2531 2678 2651 2914 
Q 2772 3150 2772 3378 
Q 2772 3750 2511 3984 
Q 2250 4219 1831 4219 
Q 1534 4219 1204 4116 
Q 875 4013 500 3803 
L 500 4441 
Q 881 4594 1212 4672 
Q 1544 4750 1819 4750 
Q 2544 4750 2975 4387 
Q 3406 4025 3406 3419 
Q 3406 3131 3298 2873 
Q 3191 2616 2906 2266 
Q 2828 2175 2409 1742 
Q 1991 1309 1228 531 
z
" transform="scale(0.015625)"/>
       </defs>
       <use xlink:href="#DejaVuSans-32"/>
       <use xlink:href="#DejaVuSans-30" x="63.623047"/>
      </g>
     </g>
    </g>
    <g id="xtick_4">
     <g id="line2d_4">
      <g>
       <use xlink:href="#m77b501a2a1" x="326.727273" y="640.8" style="stroke: #000000; stroke-width: 0.8"/>
      </g>
     </g>
     <g id="text_4">
      <!-- 30 -->
      <g transform="translate(320.364773 655.398438)scale(0.1 -0.1)">
       <defs>
        <path id="DejaVuSans-33" d="M 2597 2516 
Q 3050 2419 3304 2112 
Q 3559 1806 3559 1356 
Q 3559 666 3084 287 
Q 2609 -91 1734 -91 
Q 1441 -91 1130 -33 
Q 819 25 488 141 
L 488 750 
Q 750 597 1062 519 
Q 1375 441 1716 441 
Q 2309 441 2620 675 
Q 2931 909 2931 1356 
Q 2931 1769 2642 2001 
Q 2353 2234 1838 2234 
L 1294 2234 
L 1294 2753 
L 1863 2753 
Q 2328 2753 2575 2939 
Q 2822 3125 2822 3475 
Q 2822 3834 2567 4026 
Q 2313 4219 1838 4219 
Q 1578 4219 1281 4162 
Q 984 4106 628 3988 
L 628 4550 
Q 988 4650 1302 4700 
Q 1616 4750 1894 4750 
Q 2613 4750 3031 4423 
Q 3450 4097 3450 3541 
Q 3450 3153 3228 2886 
Q 3006 2619 2597 2516 
z
" transform="scale(0.015625)"/>
       </defs>
       <use xlink:href="#DejaVuSans-33"/>
       <use xlink:href="#DejaVuSans-30" x="63.623047"/>
      </g>
     </g>
    </g>
    <g id="xtick_5">
     <g id="line2d_5">
      <g>
       <use xlink:href="#m77b501a2a1" x="397.181818" y="640.8" style="stroke: #000000; stroke-width: 0.8"/>
      </g>
     </g>
     <g id="text_5">
      <!-- 40 -->
      <g transform="translate(390.819318 655.398438)scale(0.1 -0.1)">
       <defs>
        <path id="DejaVuSans-34" d="M 2419 4116 
L 825 1625 
L 2419 1625 
L 2419 4116 
z
M 2253 4666 
L 3047 4666 
L 3047 1625 
L 3713 1625 
L 3713 1100 
L 3047 1100 
L 3047 0 
L 2419 0 
L 2419 1100 
L 313 1100 
L 313 1709 
L 2253 4666 
z
" transform="scale(0.015625)"/>
       </defs>
       <use xlink:href="#DejaVuSans-34"/>
       <use xlink:href="#DejaVuSans-30" x="63.623047"/>
      </g>
     </g>
    </g>
    <g id="xtick_6">
     <g id="line2d_6">
      <g>
       <use xlink:href="#m77b501a2a1" x="467.636364" y="640.8" style="stroke: #000000; stroke-width: 0.8"/>
      </g>
     </g>
     <g id="text_6">
      <!-- 50 -->
      <g transform="translate(461.273864 655.398438)scale(0.1 -0.1)">
       <defs>
        <path id="DejaVuSans-35" d="M 691 4666 
L 3169 4666 
L 3169 4134 
L 1269 4134 
L 1269 2991 
Q 1406 3038 1543 3061 
Q 1681 3084 1819 3084 
Q 2600 3084 3056 2656 
Q 3513 2228 3513 1497 
Q 3513 744 3044 326 
Q 2575 -91 1722 -91 
Q 1428 -91 1123 -41 
Q 819 9 494 109 
L 494 744 
Q 775 591 1075 516 
Q 1375 441 1709 441 
Q 2250 441 2565 725 
Q 2881 1009 2881 1497 
Q 2881 1984 2565 2268 
Q 2250 2553 1709 2553 
Q 1456 2553 1204 2497 
Q 953 2441 691 2322 
L 691 4666 
z
" transform="scale(0.015625)"/>
       </defs>
       <use xlink:href="#DejaVuSans-35"/>
       <use xlink:href="#DejaVuSans-30" x="63.623047"/>
      </g>
     </g>
    </g>
    <g id="xtick_7">
     <g id="line2d_7">
      <g>
       <use xlink:href="#m77b501a2a1" x="538.090909" y="640.8" style="stroke: #000000; stroke-width: 0.8"/>
      </g>
     </g>
     <g id="text_7">
      <!-- 60 -->
      <g transform="translate(531.728409 655.398438)scale(0.1 -0.1)">
       <defs>
        <path id="DejaVuSans-36" d="M 2113 2584 
Q 1688 2584 1439 2293 
Q 1191 2003 1191 1497 
Q 1191 994 1439 701 
Q 1688 409 2113 409 
Q 2538 409 2786 701 
Q 3034 994 3034 1497 
Q 3034 2003 2786 2293 
Q 2538 2584 2113 2584 
z
M 3366 4563 
L 3366 3988 
Q 3128 4100 2886 4159 
Q 2644 4219 2406 4219 
Q 1781 4219 1451 3797 
Q 1122 3375 1075 2522 
Q 1259 2794 1537 2939 
Q 1816 3084 2150 3084 
Q 2853 3084 3261 2657 
Q 3669 2231 3669 1497 
Q 3669 778 3244 343 
Q 2819 -91 2113 -91 
Q 1303 -91 875 529 
Q 447 1150 447 2328 
Q 447 3434 972 4092 
Q 1497 4750 2381 4750 
Q 2619 4750 2861 4703 
Q 3103 4656 3366 4563 
z
" transform="scale(0.015625)"/>
       </defs>
       <use xlink:href="#DejaVuSans-36"/>
       <use xlink:href="#DejaVuSans-30" x="63.623047"/>
      </g>
     </g>
    </g>
    <g id="xtick_8">
     <g id="line2d_8">
      <g>
       <use xlink:href="#m77b501a2a1" x="608.545455" y="640.8" style="stroke: #000000; stroke-width: 0.8"/>
      </g>
     </g>
     <g id="text_8">
      <!-- 70 -->
      <g transform="translate(602.182955 655.398438)scale(0.1 -0.1)">
       <defs>
        <path id="DejaVuSans-37" d="M 525 4666 
L 3525 4666 
L 3525 4397 
L 1831 0 
L 1172 0 
L 2766 4134 
L 525 4134 
L 525 4666 
z
" transform="scale(0.015625)"/>
       </defs>
       <use xlink:href="#DejaVuSans-37"/>
       <use xlink:href="#DejaVuSans-30" x="63.623047"/>
      </g>
     </g>
    </g>
    <g id="text_9">
     <!-- hr -->
     <g transform="translate(363.775781 669.076563)scale(0.1 -0.1)">
      <defs>
       <path id="DejaVuSans-68" d="M 3513 2113 
L 3513 0 
L 2938 0 
L 2938 2094 
Q 2938 2591 2744 2837 
Q 2550 3084 2163 3084 
Q 1697 3084 1428 2787 
Q 1159 2491 1159 1978 
L 1159 0 
L 581 0 
L 581 4863 
L 1159 4863 
L 1159 2956 
Q 1366 3272 1645 3428 
Q 1925 3584 2291 3584 
Q 2894 3584 3203 3211 
Q 3513 2838 3513 2113 
z
" transform="scale(0.015625)"/>
       <path id="DejaVuSans-72" d="M 2631 2963 
Q 2534 3019 2420 3045 
Q 2306 3072 2169 3072 
Q 1681 3072 1420 2755 
Q 1159 2438 1159 1844 
L 1159 0 
L 581 0 
L 581 3500 
L 1159 3500 
L 1159 2956 
Q 1341 3275 1631 3429 
Q 1922 3584 2338 3584 
Q 2397 3584 2469 3576 
Q 2541 3569 2628 3553 
L 2631 2963 
z
" transform="scale(0.015625)"/>
      </defs>
      <use xlink:href="#DejaVuSans-68"/>
      <use xlink:href="#DejaVuSans-72" x="63.378906"/>
     </g>
    </g>
   </g>
   <g id="matplotlib.axis_2">
    <g id="ytick_1">
     <g id="line2d_9">
      <defs>
       <path id="m31c28d90b7" d="M 0 0 
L -3.5 0 
" style="stroke: #000000; stroke-width: 0.8"/>
      </defs>
      <g>
       <use xlink:href="#m31c28d90b7" x="90" y="632.103437" style="stroke: #000000; stroke-width: 0.8"/>
      </g>
     </g>
     <g id="text_10">
      <!-- 0 -->
      <g transform="translate(76.6375 635.902656)scale(0.1 -0.1)">
       <use xlink:href="#DejaVuSans-30"/>
      </g>
     </g>
    </g>
    <g id="ytick_2">
     <g id="line2d_10">
      <g>
       <use xlink:href="#m31c28d90b7" x="90" y="554.562163" style="stroke: #000000; stroke-width: 0.8"/>
      </g>
     </g>
     <g id="text_11">
      <!-- 2 -->
      <g transform="translate(76.6375 558.361381)scale(0.1 -0.1)">
       <use xlink:href="#DejaVuSans-32"/>
      </g>
     </g>
    </g>
    <g id="ytick_3">
     <g id="line2d_11">
      <g>
       <use xlink:href="#m31c28d90b7" x="90" y="477.020888" style="stroke: #000000; stroke-width: 0.8"/>
      </g>
     </g>
     <g id="text_12">
      <!-- 4 -->
      <g transform="translate(76.6375 480.820107)scale(0.1 -0.1)">
       <use xlink:href="#DejaVuSans-34"/>
      </g>
     </g>
    </g>
    <g id="ytick_4">
     <g id="line2d_12">
      <g>
       <use xlink:href="#m31c28d90b7" x="90" y="399.479614" style="stroke: #000000; stroke-width: 0.8"/>
      </g>
     </g>
     <g id="text_13">
      <!-- 6 -->
      <g transform="translate(76.6375 403.278832)scale(0.1 -0.1)">
       <use xlink:href="#DejaVuSans-36"/>
      </g>
     </g>
    </g>
    <g id="ytick_5">
     <g id="line2d_13">
      <g>
       <use xlink:href="#m31c28d90b7" x="90" y="321.938339" style="stroke: #000000; stroke-width: 0.8"/>
      </g>
     </g>
     <g id="text_14">
      <!-- 8 -->
      <g transform="translate(76.6375 325.737558)scale(0.1 -0.1)">
       <defs>
        <path id="DejaVuSans-38" d="M 2034 2216 
Q 1584 2216 1326 1975 
Q 1069 1734 1069 1313 
Q 1069 891 1326 650 
Q 1584 409 2034 409 
Q 2484 409 2743 651 
Q 3003 894 3003 1313 
Q 3003 1734 2745 1975 
Q 2488 2216 2034 2216 
z
M 1403 2484 
Q 997 2584 770 2862 
Q 544 3141 544 3541 
Q 544 4100 942 4425 
Q 1341 4750 2034 4750 
Q 2731 4750 3128 4425 
Q 3525 4100 3525 3541 
Q 3525 3141 3298 2862 
Q 3072 2584 2669 2484 
Q 3125 2378 3379 2068 
Q 3634 1759 3634 1313 
Q 3634 634 3220 271 
Q 2806 -91 2034 -91 
Q 1263 -91 848 271 
Q 434 634 434 1313 
Q 434 1759 690 2068 
Q 947 2378 1403 2484 
z
M 1172 3481 
Q 1172 3119 1398 2916 
Q 1625 2713 2034 2713 
Q 2441 2713 2670 2916 
Q 2900 3119 2900 3481 
Q 2900 3844 2670 4047 
Q 2441 4250 2034 4250 
Q 1625 4250 1398 4047 
Q 1172 3844 1172 3481 
z
" transform="scale(0.015625)"/>
       </defs>
       <use xlink:href="#DejaVuSans-38"/>
      </g>
     </g>
    </g>
    <g id="ytick_6">
     <g id="line2d_14">
      <g>
       <use xlink:href="#m31c28d90b7" x="90" y="244.397065" style="stroke: #000000; stroke-width: 0.8"/>
      </g>
     </g>
     <g id="text_15">
      <!-- 10 -->
      <g transform="translate(70.275 248.196283)scale(0.1 -0.1)">
       <use xlink:href="#DejaVuSans-31"/>
       <use xlink:href="#DejaVuSans-30" x="63.623047"/>
      </g>
     </g>
    </g>
    <g id="ytick_7">
     <g id="line2d_15">
      <g>
       <use xlink:href="#m31c28d90b7" x="90" y="166.85579" style="stroke: #000000; stroke-width: 0.8"/>
      </g>
     </g>
     <g id="text_16">
      <!-- 12 -->
      <g transform="translate(70.275 170.655009)scale(0.1 -0.1)">
       <use xlink:href="#DejaVuSans-31"/>
       <use xlink:href="#DejaVuSans-32" x="63.623047"/>
      </g>
     </g>
    </g>
    <g id="ytick_8">
     <g id="line2d_16">
      <g>
       <use xlink:href="#m31c28d90b7" x="90" y="89.314516" style="stroke: #000000; stroke-width: 0.8"/>
      </g>
     </g>
     <g id="text_17">
      <!-- 14 -->
      <g transform="translate(70.275 93.113734)scale(0.1 -0.1)">
       <use xlink:href="#DejaVuSans-31"/>
       <use xlink:href="#DejaVuSans-34" x="63.623047"/>
      </g>
     </g>
    </g>
   </g>
   <g id="line2d_17">
    <path d="M 115.363636 615.6 
L 122.409091 607.315109 
L 129.454545 602.156748 
L 136.5 598.300417 
L 143.545455 595.18218 
L 150.590909 592.511775 
L 157.636364 590.231149 
L 164.681818 588.373475 
L 171.727273 586.573854 
L 178.772727 584.865458 
L 185.818182 583.322926 
L 192.863636 582.153587 
L 199.909091 580.70228 
L 206.954545 579.541234 
L 214 578.587518 
L 221.045455 577.310367 
L 228.090909 576.364944 
L 235.136364 575.394642 
L 242.181818 574.623376 
L 249.227273 574.059439 
L 256.272727 573.329639 
L 263.318182 572.624718 
L 270.363636 571.911504 
L 277.409091 571.438793 
L 284.454545 571.986143 
L 291.5 573.603314 
L 298.545455 574.523857 
L 305.590909 575.31171 
L 312.636364 575.709783 
L 319.681818 576.132735 
L 326.727273 576.481049 
L 333.772727 577.020106 
L 340.818182 577.534283 
L 347.863636 577.899184 
L 354.909091 578.30555 
L 361.954545 578.64557 
L 369 579.101695 
L 376.045455 579.350491 
L 383.090909 579.5827 
L 390.136364 579.914427 
L 397.181818 580.013946 
L 404.227273 580.387139 
L 411.272727 580.577882 
L 418.318182 580.710573 
L 425.363636 580.6774 
L 432.409091 581.075473 
L 439.454545 581.183285 
L 446.5 581.43208 
L 453.545455 581.755514 
L 460.590909 582.145294 
L 467.636364 582.518487 
L 474.681818 583.074131 
L 481.727273 583.322926 
L 488.772727 583.803931 
L 495.818182 584.119072 
L 502.863636 584.442506 
L 509.909091 584.525438 
L 516.954545 584.956684 
L 524 584.931804 
L 531.045455 585.023029 
L 538.090909 585.047909 
L 545.136364 585.072788 
L 552.181818 585.031322 
L 559.227273 585.014736 
L 566.272727 584.873752 
L 573.318182 584.699595 
L 580.363636 584.683008 
L 587.409091 584.558611 
L 594.454545 584.326401 
L 601.5 584.235176 
L 608.545455 584.03614 
L 615.590909 583.712706 
L 622.636364 583.09901 
" clip-path="url(#p391311497c)" style="fill: none; stroke: #1f77b4; stroke-width: 1.5; stroke-linecap: square"/>
   </g>
   <g id="line2d_18">
    <path d="M 115.363636 523.874979 
L 122.409091 480.360206 
L 129.454545 462.811513 
L 136.5 452.079635 
L 143.545455 442.637424 
L 150.590909 435.48092 
L 157.636364 428.859857 
L 164.681818 423.136957 
L 171.727273 417.74223 
L 178.772727 413.239908 
L 185.818182 409.267271 
L 192.863636 405.317663 
L 199.909091 401.609868 
L 206.954545 398.523878 
L 214 395.737274 
L 221.045455 392.518862 
L 228.090909 389.853165 
L 235.136364 387.233527 
L 242.181818 385.097515 
L 249.227273 382.535452 
L 256.272727 380.10581 
L 263.318182 377.969798 
L 270.363636 374.141096 
L 277.409091 371.993569 
L 284.454545 375.591973 
L 291.5 380.382167 
L 298.545455 382.593026 
L 305.590909 384.0036 
L 312.636364 385.258723 
L 319.681818 386.208702 
L 326.727273 387.233527 
L 333.772727 388.615314 
L 340.818182 389.588322 
L 347.863636 389.974071 
L 354.909091 390.918292 
L 361.954545 391.603428 
L 369 392.323109 
L 376.045455 392.956428 
L 383.090909 393.250058 
L 390.136364 394.015798 
L 397.181818 395.046381 
L 404.227273 395.944542 
L 411.272727 397.055729 
L 418.318182 398.005708 
L 425.363636 399.134167 
L 432.409091 400.216567 
L 439.454545 401.391085 
L 446.5 402.674996 
L 453.545455 403.866787 
L 460.590909 404.983731 
L 467.636364 405.668867 
L 474.681818 406.981565 
L 481.727273 408.156084 
L 488.772727 409.699079 
L 495.818182 410.775721 
L 502.863636 411.357223 
L 509.909091 412.163266 
L 516.954545 413.556568 
L 524 415.197439 
L 531.045455 416.99952 
L 538.090909 418.214341 
L 545.136364 419.532796 
L 552.181818 420.246719 
L 559.227273 421.254272 
L 566.272727 422.492123 
L 573.318182 423.551493 
L 580.363636 424.892978 
L 587.409091 426.211432 
L 594.454545 427.311105 
L 601.5 428.28987 
L 608.545455 429.383785 
L 615.590909 430.598606 
L 622.636364 432.481291 
" clip-path="url(#p391311497c)" style="fill: none; stroke: #ff7f0e; stroke-width: 1.5; stroke-linecap: square"/>
   </g>
   <g id="line2d_19">
    <path d="M 115.363636 575.274807 
L 122.409091 551.578991 
L 129.454545 540.547083 
L 136.5 533.192478 
L 143.545455 527.125459 
L 150.590909 522.314233 
L 157.636364 517.895112 
L 164.681818 513.852199 
L 171.727273 510.349753 
L 178.772727 507.080451 
L 185.818182 504.372812 
L 192.863636 501.802939 
L 199.909091 499.354937 
L 206.954545 497.193065 
L 214 495.391504 
L 221.045455 493.399191 
L 228.090909 491.629423 
L 235.136364 490.24646 
L 242.181818 488.905887 
L 249.227273 487.432847 
L 256.272727 486.171755 
L 263.318182 485.170299 
L 270.363636 483.522401 
L 277.409091 482.494452 
L 284.454545 485.906819 
L 291.5 489.494044 
L 298.545455 491.836072 
L 305.590909 493.7701 
L 312.636364 495.322621 
L 319.681818 496.382362 
L 326.727273 497.383818 
L 333.772727 498.597222 
L 340.818182 499.482106 
L 347.863636 500.515354 
L 354.909091 501.241277 
L 361.954545 501.792342 
L 369 502.163252 
L 376.045455 502.523564 
L 383.090909 503.048136 
L 390.136364 503.678682 
L 397.181818 504.372812 
L 404.227273 504.706631 
L 411.272727 505.135826 
L 418.318182 505.808762 
L 425.363636 506.402217 
L 432.409091 506.603568 
L 439.454545 506.741334 
L 446.5 507.260607 
L 453.545455 507.689803 
L 460.590909 508.092504 
L 467.636364 508.744245 
L 474.681818 509.480766 
L 481.727273 509.888766 
L 488.772727 510.471624 
L 495.818182 510.922014 
L 502.863636 511.467781 
L 509.909091 511.759209 
L 516.954545 512.320872 
L 524 512.776561 
L 531.045455 513.179263 
L 538.090909 513.306432 
L 545.136364 513.56077 
L 552.181818 513.947575 
L 559.227273 514.223108 
L 566.272727 514.498641 
L 573.318182 515.012615 
L 580.363636 515.40472 
L 587.409091 515.553083 
L 594.454545 515.457707 
L 601.5 515.749136 
L 608.545455 515.939889 
L 615.590909 516.157136 
L 622.636364 516.268409 
" clip-path="url(#p391311497c)" style="fill: none; stroke: #2ca02c; stroke-width: 1.5; stroke-linecap: square"/>
   </g>
   <g id="line2d_20">
    <path d="M 115.363636 447.879456 
L 122.409091 376.747075 
L 129.454545 354.712536 
L 136.5 340.133888 
L 143.545455 326.776737 
L 150.590909 316.449534 
L 157.636364 307.375555 
L 164.681818 297.635305 
L 171.727273 290.988456 
L 178.772727 284.627153 
L 185.818182 278.868666 
L 192.863636 273.475043 
L 199.909091 267.478602 
L 206.954545 262.529159 
L 214 257.944579 
L 221.045455 254.295951 
L 228.090909 251.170822 
L 235.136364 247.998102 
L 242.181818 244.539837 
L 249.227273 241.256072 
L 256.272727 238.686169 
L 263.318182 236.00522 
L 270.363636 229.897735 
L 277.409091 227.153332 
L 284.454545 233.57809 
L 291.5 241.636798 
L 298.545455 243.93702 
L 305.590909 244.999881 
L 312.636364 246.205515 
L 319.681818 247.553921 
L 326.727273 249.362371 
L 333.772727 250.742504 
L 340.818182 252.408182 
L 347.863636 254.153178 
L 354.909091 255.850583 
L 361.954545 257.183126 
L 369 260.038574 
L 376.045455 261.149026 
L 383.090909 262.259478 
L 390.136364 263.845838 
L 397.181818 265.210107 
L 404.227273 267.224784 
L 411.272727 268.303509 
L 418.318182 270.032641 
L 425.363636 271.285866 
L 432.409091 272.919817 
L 439.454545 274.093723 
L 446.5 275.918037 
L 453.545455 278.138941 
L 460.590909 280.47089 
L 467.636364 282.374522 
L 474.681818 284.611289 
L 481.727273 285.388606 
L 488.772727 287.641237 
L 495.818182 289.957322 
L 502.863636 292.701725 
L 509.909091 294.414994 
L 516.954545 296.191717 
L 524 297.841531 
L 531.045455 299.618255 
L 538.090909 301.331523 
L 545.136364 303.91729 
L 552.181818 305.345014 
L 559.227273 307.296237 
L 566.272727 308.406689 
L 573.318182 309.136414 
L 580.363636 310.373775 
L 587.409091 312.277407 
L 594.454545 313.895494 
L 601.5 315.767399 
L 608.545455 317.766212 
L 615.590909 319.463618 
L 622.636364 321.795567 
" clip-path="url(#p391311497c)" style="fill: none; stroke: #d62728; stroke-width: 1.5; stroke-linecap: square"/>
   </g>
   <g id="line2d_21">
    <path d="M 115.363636 440.723024 
L 122.409091 373.897099 
L 129.454545 347.673494 
L 136.5 332.409464 
L 143.545455 319.343454 
L 150.590909 309.116554 
L 157.636364 300.049719 
L 164.681818 288.998561 
L 171.727273 280.023312 
L 178.772727 271.658623 
L 185.818182 265.217202 
L 192.863636 258.836837 
L 199.909091 252.151192 
L 206.954545 246.442445 
L 214 240.581057 
L 221.045455 234.933366 
L 228.090909 231.422639 
L 235.136364 226.812902 
L 242.181818 222.416861 
L 249.227273 217.959764 
L 256.272727 213.441611 
L 263.318182 209.19821 
L 270.363636 195.887976 
L 277.409091 187.859096 
L 284.454545 186.515861 
L 291.5 186.302165 
L 298.545455 184.409425 
L 305.590909 180.593417 
L 312.636364 177.235331 
L 319.681818 174.426749 
L 326.727273 173.052986 
L 333.772727 172.99193 
L 340.818182 170.091765 
L 347.863636 169.511731 
L 354.909091 167.222127 
L 361.954545 164.718826 
L 369 164.260905 
L 376.045455 161.879716 
L 383.090909 160.963874 
L 390.136364 158.063709 
L 397.181818 155.316183 
L 404.227273 155.041431 
L 411.272727 154.034005 
L 418.318182 151.255951 
L 425.363636 150.126413 
L 432.409091 148.264201 
L 439.454545 145.852484 
L 446.5 144.112385 
L 453.545455 142.677566 
L 460.590909 140.479546 
L 467.636364 139.258423 
L 474.681818 137.670964 
L 481.727273 134.953967 
L 488.772727 133.030699 
L 495.818182 130.954791 
L 502.863636 130.741094 
L 509.909091 129.428388 
L 516.954545 127.199839 
L 524 126.314525 
L 531.045455 123.994393 
L 538.090909 122.040597 
L 545.136364 120.453138 
L 552.181818 118.438286 
L 559.227273 116.057097 
L 566.272727 114.347525 
L 573.318182 112.332673 
L 580.363636 111.783168 
L 587.409091 111.6 
L 594.454545 112.210561 
L 601.5 113.279043 
L 608.545455 113.248515 
L 615.590909 113.889605 
L 622.636364 115.416008 
" clip-path="url(#p391311497c)" style="fill: none; stroke: #9467bd; stroke-width: 1.5; stroke-linecap: square"/>
   </g>
   <g id="patch_3">
    <path d="M 90 640.8 
L 90 86.4 
" style="fill: none; stroke: #000000; stroke-width: 0.8; stroke-linejoin: miter; stroke-linecap: square"/>
   </g>
   <g id="patch_4">
    <path d="M 648 640.8 
L 648 86.4 
" style="fill: none; stroke: #000000; stroke-width: 0.8; stroke-linejoin: miter; stroke-linecap: square"/>
   </g>
   <g id="patch_5">
    <path d="M 90 640.8 
L 648 640.8 
" style="fill: none; stroke: #000000; stroke-width: 0.8; stroke-linejoin: miter; stroke-linecap: square"/>
   </g>
   <g id="patch_6">
    <path d="M 90 86.4 
L 648 86.4 
" style="fill: none; stroke: #000000; stroke-width: 0.8; stroke-linejoin: miter; stroke-linecap: square"/>
   </g>
   <g id="legend_1">
    <g id="patch_7">
     <path d="M 97 167.790625 
L 136.7 167.790625 
Q 138.7 167.790625 138.7 165.790625 
L 138.7 93.4 
Q 138.7 91.4 136.7 91.4 
L 97 91.4 
Q 95 91.4 95 93.4 
L 95 165.790625 
Q 95 167.790625 97 167.790625 
z
" style="fill: #ffffff; opacity: 0.8; stroke: #cccccc; stroke-linejoin: miter"/>
    </g>
    <g id="line2d_22">
     <path d="M 99 99.498437 
L 109 99.498437 
L 119 99.498437 
" style="fill: none; stroke: #1f77b4; stroke-width: 1.5; stroke-linecap: square"/>
    </g>
    <g id="text_18">
     <!-- A -->
     <g transform="translate(127 102.998437)scale(0.1 -0.1)">
      <defs>
       <path id="DejaVuSans-41" d="M 2188 4044 
L 1331 1722 
L 3047 1722 
L 2188 4044 
z
M 1831 4666 
L 2547 4666 
L 4325 0 
L 3669 0 
L 3244 1197 
L 1141 1197 
L 716 0 
L 50 0 
L 1831 4666 
z
" transform="scale(0.015625)"/>
      </defs>
      <use xlink:href="#DejaVuSans-41"/>
     </g>
    </g>
    <g id="line2d_23">
     <path d="M 99 114.176562 
L 109 114.176562 
L 119 114.176562 
" style="fill: none; stroke: #ff7f0e; stroke-width: 1.5; stroke-linecap: square"/>
    </g>
    <g id="text_19">
     <!-- B -->
     <g transform="translate(127 117.676562)scale(0.1 -0.1)">
      <defs>
       <path id="DejaVuSans-42" d="M 1259 2228 
L 1259 519 
L 2272 519 
Q 2781 519 3026 730 
Q 3272 941 3272 1375 
Q 3272 1813 3026 2020 
Q 2781 2228 2272 2228 
L 1259 2228 
z
M 1259 4147 
L 1259 2741 
L 2194 2741 
Q 2656 2741 2882 2914 
Q 3109 3088 3109 3444 
Q 3109 3797 2882 3972 
Q 2656 4147 2194 4147 
L 1259 4147 
z
M 628 4666 
L 2241 4666 
Q 2963 4666 3353 4366 
Q 3744 4066 3744 3513 
Q 3744 3084 3544 2831 
Q 3344 2578 2956 2516 
Q 3422 2416 3680 2098 
Q 3938 1781 3938 1306 
Q 3938 681 3513 340 
Q 3088 0 2303 0 
L 628 0 
L 628 4666 
z
" transform="scale(0.015625)"/>
      </defs>
      <use xlink:href="#DejaVuSans-42"/>
     </g>
    </g>
    <g id="line2d_24">
     <path d="M 99 128.854687 
L 109 128.854687 
L 119 128.854687 
" style="fill: none; stroke: #2ca02c; stroke-width: 1.5; stroke-linecap: square"/>
    </g>
    <g id="text_20">
     <!-- C -->
     <g transform="translate(127 132.354687)scale(0.1 -0.1)">
      <defs>
       <path id="DejaVuSans-43" d="M 4122 4306 
L 4122 3641 
Q 3803 3938 3442 4084 
Q 3081 4231 2675 4231 
Q 1875 4231 1450 3742 
Q 1025 3253 1025 2328 
Q 1025 1406 1450 917 
Q 1875 428 2675 428 
Q 3081 428 3442 575 
Q 3803 722 4122 1019 
L 4122 359 
Q 3791 134 3420 21 
Q 3050 -91 2638 -91 
Q 1578 -91 968 557 
Q 359 1206 359 2328 
Q 359 3453 968 4101 
Q 1578 4750 2638 4750 
Q 3056 4750 3426 4639 
Q 3797 4528 4122 4306 
z
" transform="scale(0.015625)"/>
      </defs>
      <use xlink:href="#DejaVuSans-43"/>
     </g>
    </g>
    <g id="line2d_25">
     <path d="M 99 143.532812 
L 109 143.532812 
L 119 143.532812 
" style="fill: none; stroke: #d62728; stroke-width: 1.5; stroke-linecap: square"/>
    </g>
    <g id="text_21">
     <!-- D -->
     <g transform="translate(127 147.032812)scale(0.1 -0.1)">
      <defs>
       <path id="DejaVuSans-44" d="M 1259 4147 
L 1259 519 
L 2022 519 
Q 2988 519 3436 956 
Q 3884 1394 3884 2338 
Q 3884 3275 3436 3711 
Q 2988 4147 2022 4147 
L 1259 4147 
z
M 628 4666 
L 1925 4666 
Q 3281 4666 3915 4102 
Q 4550 3538 4550 2338 
Q 4550 1131 3912 565 
Q 3275 0 1925 0 
L 628 0 
L 628 4666 
z
" transform="scale(0.015625)"/>
      </defs>
      <use xlink:href="#DejaVuSans-44"/>
     </g>
    </g>
    <g id="line2d_26">
     <path d="M 99 158.210937 
L 109 158.210937 
L 119 158.210937 
" style="fill: none; stroke: #9467bd; stroke-width: 1.5; stroke-linecap: square"/>
    </g>
    <g id="text_22">
     <!-- E -->
     <g transform="translate(127 161.710937)scale(0.1 -0.1)">
      <defs>
       <path id="DejaVuSans-45" d="M 628 4666 
L 3578 4666 
L 3578 4134 
L 1259 4134 
L 1259 2753 
L 3481 2753 
L 3481 2222 
L 1259 2222 
L 1259 531 
L 3634 531 
L 3634 0 
L 628 0 
L 628 4666 
z
" transform="scale(0.015625)"/>
      </defs>
      <use xlink:href="#DejaVuSans-45"/>
     </g>
    </g>
   </g>
  </g>
 </g>
 <defs>
  <clipPath id="p391311497c">
   <rect x="90" y="86.4" width="558" height="554.4"/>
  </clipPath>
 </defs>
</svg>
