<?xml version="1.0" encoding="utf-8" standalone="no"?>
<!DOCTYPE svg PUBLIC "-//W3C//DTD SVG 1.1//EN"
  "http://www.w3.org/Graphics/SVG/1.1/DTD/svg11.dtd">
<svg xmlns:xlink="http://www.w3.org/1999/xlink" width="720pt" height="720pt" viewBox="0 0 720 720" xmlns="http://www.w3.org/2000/svg" version="1.1">
 <metadata>
  <rdf:RDF xmlns:dc="http://purl.org/dc/elements/1.1/" xmlns:cc="http://creativecommons.org/ns#" xmlns:rdf="http://www.w3.org/1999/02/22-rdf-syntax-ns#">
   <cc:Work>
    <dc:type rdf:resource="http://purl.org/dc/dcmitype/StillImage"/>
    <dc:date>2022-12-03T17:27:39.833549</dc:date>
    <dc:format>image/svg+xml</dc:format>
    <dc:creator>
     <cc:Agent>
      <dc:title>Matplotlib v3.5.3, https://matplotlib.org/</dc:title>
     </cc:Agent>
    </dc:creator>
   </cc:Work>
  </rdf:RDF>
 </metadata>
 <defs>
  <style type="text/css">*{stroke-linejoin: round; stroke-linecap: butt}</style>
 </defs>
 <g id="figure_1">
  <g id="patch_1">
   <path d="M 0 720 
L 720 720 
L 720 0 
L 0 0 
z
" style="fill: #ffffff"/>
  </g>
  <g id="axes_1">
   <g id="patch_2">
    <path d="M 90 640.8 
L 648 640.8 
L 648 86.4 
L 90 86.4 
z
" style="fill: #ffffff"/>
   </g>
   <g id="matplotlib.axis_1">
    <g id="xtick_1">
     <g id="line2d_1">
      <defs>
       <path id="mce6b99c04c" d="M 0 0 
L 0 3.5 
" style="stroke: #000000; stroke-width: 0.8"/>
      </defs>
      <g>
       <use xlink:href="#mce6b99c04c" x="115.363636" y="640.8" style="stroke: #000000; stroke-width: 0.8"/>
      </g>
     </g>
     <g id="text_1">
      <!-- 0 -->
      <g transform="translate(112.182386 655.398438)scale(0.1 -0.1)">
       <defs>
        <path id="DejaVuSans-30" d="M 2034 4250 
Q 1547 4250 1301 3770 
Q 1056 3291 1056 2328 
Q 1056 1369 1301 889 
Q 1547 409 2034 409 
Q 2525 409 2770 889 
Q 3016 1369 3016 2328 
Q 3016 3291 2770 3770 
Q 2525 4250 2034 4250 
z
M 2034 4750 
Q 2819 4750 3233 4129 
Q 3647 3509 3647 2328 
Q 3647 1150 3233 529 
Q 2819 -91 2034 -91 
Q 1250 -91 836 529 
Q 422 1150 422 2328 
Q 422 3509 836 4129 
Q 1250 4750 2034 4750 
z
" transform="scale(0.015625)"/>
       </defs>
       <use xlink:href="#DejaVuSans-30"/>
      </g>
     </g>
    </g>
    <g id="xtick_2">
     <g id="line2d_2">
      <g>
       <use xlink:href="#mce6b99c04c" x="185.818182" y="640.8" style="stroke: #000000; stroke-width: 0.8"/>
      </g>
     </g>
     <g id="text_2">
      <!-- 10 -->
      <g transform="translate(179.455682 655.398438)scale(0.1 -0.1)">
       <defs>
        <path id="DejaVuSans-31" d="M 794 531 
L 1825 531 
L 1825 4091 
L 703 3866 
L 703 4441 
L 1819 4666 
L 2450 4666 
L 2450 531 
L 3481 531 
L 3481 0 
L 794 0 
L 794 531 
z
" transform="scale(0.015625)"/>
       </defs>
       <use xlink:href="#DejaVuSans-31"/>
       <use xlink:href="#DejaVuSans-30" x="63.623047"/>
      </g>
     </g>
    </g>
    <g id="xtick_3">
     <g id="line2d_3">
      <g>
       <use xlink:href="#mce6b99c04c" x="256.272727" y="640.8" style="stroke: #000000; stroke-width: 0.8"/>
      </g>
     </g>
     <g id="text_3">
      <!-- 20 -->
      <g transform="translate(249.910227 655.398438)scale(0.1 -0.1)">
       <defs>
        <path id="DejaVuSans-32" d="M 1228 531 
L 3431 531 
L 3431 0 
L 469 0 
L 469 531 
Q 828 903 1448 1529 
Q 2069 2156 2228 2338 
Q 2531 2678 2651 2914 
Q 2772 3150 2772 3378 
Q 2772 3750 2511 3984 
Q 2250 4219 1831 4219 
Q 1534 4219 1204 4116 
Q 875 4013 500 3803 
L 500 4441 
Q 881 4594 1212 4672 
Q 1544 4750 1819 4750 
Q 2544 4750 2975 4387 
Q 3406 4025 3406 3419 
Q 3406 3131 3298 2873 
Q 3191 2616 2906 2266 
Q 2828 2175 2409 1742 
Q 1991 1309 1228 531 
z
" transform="scale(0.015625)"/>
       </defs>
       <use xlink:href="#DejaVuSans-32"/>
       <use xlink:href="#DejaVuSans-30" x="63.623047"/>
      </g>
     </g>
    </g>
    <g id="xtick_4">
     <g id="line2d_4">
      <g>
       <use xlink:href="#mce6b99c04c" x="326.727273" y="640.8" style="stroke: #000000; stroke-width: 0.8"/>
      </g>
     </g>
     <g id="text_4">
      <!-- 30 -->
      <g transform="translate(320.364773 655.398438)scale(0.1 -0.1)">
       <defs>
        <path id="DejaVuSans-33" d="M 2597 2516 
Q 3050 2419 3304 2112 
Q 3559 1806 3559 1356 
Q 3559 666 3084 287 
Q 2609 -91 1734 -91 
Q 1441 -91 1130 -33 
Q 819 25 488 141 
L 488 750 
Q 750 597 1062 519 
Q 1375 441 1716 441 
Q 2309 441 2620 675 
Q 2931 909 2931 1356 
Q 2931 1769 2642 2001 
Q 2353 2234 1838 2234 
L 1294 2234 
L 1294 2753 
L 1863 2753 
Q 2328 2753 2575 2939 
Q 2822 3125 2822 3475 
Q 2822 3834 2567 4026 
Q 2313 4219 1838 4219 
Q 1578 4219 1281 4162 
Q 984 4106 628 3988 
L 628 4550 
Q 988 4650 1302 4700 
Q 1616 4750 1894 4750 
Q 2613 4750 3031 4423 
Q 3450 4097 3450 3541 
Q 3450 3153 3228 2886 
Q 3006 2619 2597 2516 
z
" transform="scale(0.015625)"/>
       </defs>
       <use xlink:href="#DejaVuSans-33"/>
       <use xlink:href="#DejaVuSans-30" x="63.623047"/>
      </g>
     </g>
    </g>
    <g id="xtick_5">
     <g id="line2d_5">
      <g>
       <use xlink:href="#mce6b99c04c" x="397.181818" y="640.8" style="stroke: #000000; stroke-width: 0.8"/>
      </g>
     </g>
     <g id="text_5">
      <!-- 40 -->
      <g transform="translate(390.819318 655.398438)scale(0.1 -0.1)">
       <defs>
        <path id="DejaVuSans-34" d="M 2419 4116 
L 825 1625 
L 2419 1625 
L 2419 4116 
z
M 2253 4666 
L 3047 4666 
L 3047 1625 
L 3713 1625 
L 3713 1100 
L 3047 1100 
L 3047 0 
L 2419 0 
L 2419 1100 
L 313 1100 
L 313 1709 
L 2253 4666 
z
" transform="scale(0.015625)"/>
       </defs>
       <use xlink:href="#DejaVuSans-34"/>
       <use xlink:href="#DejaVuSans-30" x="63.623047"/>
      </g>
     </g>
    </g>
    <g id="xtick_6">
     <g id="line2d_6">
      <g>
       <use xlink:href="#mce6b99c04c" x="467.636364" y="640.8" style="stroke: #000000; stroke-width: 0.8"/>
      </g>
     </g>
     <g id="text_6">
      <!-- 50 -->
      <g transform="translate(461.273864 655.398438)scale(0.1 -0.1)">
       <defs>
        <path id="DejaVuSans-35" d="M 691 4666 
L 3169 4666 
L 3169 4134 
L 1269 4134 
L 1269 2991 
Q 1406 3038 1543 3061 
Q 1681 3084 1819 3084 
Q 2600 3084 3056 2656 
Q 3513 2228 3513 1497 
Q 3513 744 3044 326 
Q 2575 -91 1722 -91 
Q 1428 -91 1123 -41 
Q 819 9 494 109 
L 494 744 
Q 775 591 1075 516 
Q 1375 441 1709 441 
Q 2250 441 2565 725 
Q 2881 1009 2881 1497 
Q 2881 1984 2565 2268 
Q 2250 2553 1709 2553 
Q 1456 2553 1204 2497 
Q 953 2441 691 2322 
L 691 4666 
z
" transform="scale(0.015625)"/>
       </defs>
       <use xlink:href="#DejaVuSans-35"/>
       <use xlink:href="#DejaVuSans-30" x="63.623047"/>
      </g>
     </g>
    </g>
    <g id="xtick_7">
     <g id="line2d_7">
      <g>
       <use xlink:href="#mce6b99c04c" x="538.090909" y="640.8" style="stroke: #000000; stroke-width: 0.8"/>
      </g>
     </g>
     <g id="text_7">
      <!-- 60 -->
      <g transform="translate(531.728409 655.398438)scale(0.1 -0.1)">
       <defs>
        <path id="DejaVuSans-36" d="M 2113 2584 
Q 1688 2584 1439 2293 
Q 1191 2003 1191 1497 
Q 1191 994 1439 701 
Q 1688 409 2113 409 
Q 2538 409 2786 701 
Q 3034 994 3034 1497 
Q 3034 2003 2786 2293 
Q 2538 2584 2113 2584 
z
M 3366 4563 
L 3366 3988 
Q 3128 4100 2886 4159 
Q 2644 4219 2406 4219 
Q 1781 4219 1451 3797 
Q 1122 3375 1075 2522 
Q 1259 2794 1537 2939 
Q 1816 3084 2150 3084 
Q 2853 3084 3261 2657 
Q 3669 2231 3669 1497 
Q 3669 778 3244 343 
Q 2819 -91 2113 -91 
Q 1303 -91 875 529 
Q 447 1150 447 2328 
Q 447 3434 972 4092 
Q 1497 4750 2381 4750 
Q 2619 4750 2861 4703 
Q 3103 4656 3366 4563 
z
" transform="scale(0.015625)"/>
       </defs>
       <use xlink:href="#DejaVuSans-36"/>
       <use xlink:href="#DejaVuSans-30" x="63.623047"/>
      </g>
     </g>
    </g>
    <g id="xtick_8">
     <g id="line2d_8">
      <g>
       <use xlink:href="#mce6b99c04c" x="608.545455" y="640.8" style="stroke: #000000; stroke-width: 0.8"/>
      </g>
     </g>
     <g id="text_8">
      <!-- 70 -->
      <g transform="translate(602.182955 655.398438)scale(0.1 -0.1)">
       <defs>
        <path id="DejaVuSans-37" d="M 525 4666 
L 3525 4666 
L 3525 4397 
L 1831 0 
L 1172 0 
L 2766 4134 
L 525 4134 
L 525 4666 
z
" transform="scale(0.015625)"/>
       </defs>
       <use xlink:href="#DejaVuSans-37"/>
       <use xlink:href="#DejaVuSans-30" x="63.623047"/>
      </g>
     </g>
    </g>
    <g id="text_9">
     <!-- hr -->
     <g transform="translate(363.775781 669.076563)scale(0.1 -0.1)">
      <defs>
       <path id="DejaVuSans-68" d="M 3513 2113 
L 3513 0 
L 2938 0 
L 2938 2094 
Q 2938 2591 2744 2837 
Q 2550 3084 2163 3084 
Q 1697 3084 1428 2787 
Q 1159 2491 1159 1978 
L 1159 0 
L 581 0 
L 581 4863 
L 1159 4863 
L 1159 2956 
Q 1366 3272 1645 3428 
Q 1925 3584 2291 3584 
Q 2894 3584 3203 3211 
Q 3513 2838 3513 2113 
z
" transform="scale(0.015625)"/>
       <path id="DejaVuSans-72" d="M 2631 2963 
Q 2534 3019 2420 3045 
Q 2306 3072 2169 3072 
Q 1681 3072 1420 2755 
Q 1159 2438 1159 1844 
L 1159 0 
L 581 0 
L 581 3500 
L 1159 3500 
L 1159 2956 
Q 1341 3275 1631 3429 
Q 1922 3584 2338 3584 
Q 2397 3584 2469 3576 
Q 2541 3569 2628 3553 
L 2631 2963 
z
" transform="scale(0.015625)"/>
      </defs>
      <use xlink:href="#DejaVuSans-68"/>
      <use xlink:href="#DejaVuSans-72" x="63.378906"/>
     </g>
    </g>
   </g>
   <g id="matplotlib.axis_2">
    <g id="ytick_1">
     <g id="line2d_9">
      <defs>
       <path id="mbe691c4f05" d="M 0 0 
L -3.5 0 
" style="stroke: #000000; stroke-width: 0.8"/>
      </defs>
      <g>
       <use xlink:href="#mbe691c4f05" x="90" y="563.911665" style="stroke: #000000; stroke-width: 0.8"/>
      </g>
     </g>
     <g id="text_10">
      <!-- 2 -->
      <g transform="translate(76.6375 567.710884)scale(0.1 -0.1)">
       <use xlink:href="#DejaVuSans-32"/>
      </g>
     </g>
    </g>
    <g id="ytick_2">
     <g id="line2d_10">
      <g>
       <use xlink:href="#mbe691c4f05" x="90" y="482.561738" style="stroke: #000000; stroke-width: 0.8"/>
      </g>
     </g>
     <g id="text_11">
      <!-- 4 -->
      <g transform="translate(76.6375 486.360957)scale(0.1 -0.1)">
       <use xlink:href="#DejaVuSans-34"/>
      </g>
     </g>
    </g>
    <g id="ytick_3">
     <g id="line2d_11">
      <g>
       <use xlink:href="#mbe691c4f05" x="90" y="401.211811" style="stroke: #000000; stroke-width: 0.8"/>
      </g>
     </g>
     <g id="text_12">
      <!-- 6 -->
      <g transform="translate(76.6375 405.01103)scale(0.1 -0.1)">
       <use xlink:href="#DejaVuSans-36"/>
      </g>
     </g>
    </g>
    <g id="ytick_4">
     <g id="line2d_12">
      <g>
       <use xlink:href="#mbe691c4f05" x="90" y="319.861884" style="stroke: #000000; stroke-width: 0.8"/>
      </g>
     </g>
     <g id="text_13">
      <!-- 8 -->
      <g transform="translate(76.6375 323.661103)scale(0.1 -0.1)">
       <defs>
        <path id="DejaVuSans-38" d="M 2034 2216 
Q 1584 2216 1326 1975 
Q 1069 1734 1069 1313 
Q 1069 891 1326 650 
Q 1584 409 2034 409 
Q 2484 409 2743 651 
Q 3003 894 3003 1313 
Q 3003 1734 2745 1975 
Q 2488 2216 2034 2216 
z
M 1403 2484 
Q 997 2584 770 2862 
Q 544 3141 544 3541 
Q 544 4100 942 4425 
Q 1341 4750 2034 4750 
Q 2731 4750 3128 4425 
Q 3525 4100 3525 3541 
Q 3525 3141 3298 2862 
Q 3072 2584 2669 2484 
Q 3125 2378 3379 2068 
Q 3634 1759 3634 1313 
Q 3634 634 3220 271 
Q 2806 -91 2034 -91 
Q 1263 -91 848 271 
Q 434 634 434 1313 
Q 434 1759 690 2068 
Q 947 2378 1403 2484 
z
M 1172 3481 
Q 1172 3119 1398 2916 
Q 1625 2713 2034 2713 
Q 2441 2713 2670 2916 
Q 2900 3119 2900 3481 
Q 2900 3844 2670 4047 
Q 2441 4250 2034 4250 
Q 1625 4250 1398 4047 
Q 1172 3844 1172 3481 
z
" transform="scale(0.015625)"/>
       </defs>
       <use xlink:href="#DejaVuSans-38"/>
      </g>
     </g>
    </g>
    <g id="ytick_5">
     <g id="line2d_13">
      <g>
       <use xlink:href="#mbe691c4f05" x="90" y="238.511957" style="stroke: #000000; stroke-width: 0.8"/>
      </g>
     </g>
     <g id="text_14">
      <!-- 10 -->
      <g transform="translate(70.275 242.311176)scale(0.1 -0.1)">
       <use xlink:href="#DejaVuSans-31"/>
       <use xlink:href="#DejaVuSans-30" x="63.623047"/>
      </g>
     </g>
    </g>
    <g id="ytick_6">
     <g id="line2d_14">
      <g>
       <use xlink:href="#mbe691c4f05" x="90" y="157.16203" style="stroke: #000000; stroke-width: 0.8"/>
      </g>
     </g>
     <g id="text_15">
      <!-- 12 -->
      <g transform="translate(70.275 160.961249)scale(0.1 -0.1)">
       <use xlink:href="#DejaVuSans-31"/>
       <use xlink:href="#DejaVuSans-32" x="63.623047"/>
      </g>
     </g>
    </g>
   </g>
   <g id="line2d_15">
    <path d="M 115.363636 615.6 
L 122.409091 601.784802 
L 129.454545 594.588855 
L 136.5 589.57721 
L 143.545455 585.601576 
L 150.590909 582.212847 
L 157.636364 579.196673 
L 164.681818 576.604091 
L 171.727273 574.378961 
L 178.772727 572.20997 
L 185.818182 570.3625 
L 192.863636 568.754895 
L 199.909091 566.978874 
L 206.954545 565.473339 
L 214 564.243393 
L 221.045455 562.819514 
L 228.090909 561.62019 
L 235.136364 560.477004 
L 242.181818 559.364439 
L 249.227273 558.456014 
L 256.272727 557.583314 
L 263.318182 556.894341 
L 270.363636 556.113504 
L 277.409091 555.735844 
L 284.454545 557.226069 
L 291.5 559.818651 
L 298.545455 561.349704 
L 305.590909 562.727651 
L 312.636364 563.472763 
L 319.681818 563.983114 
L 326.727273 564.605742 
L 333.772727 565.396786 
L 340.818182 565.937758 
L 347.863636 566.499144 
L 354.909091 567.065633 
L 361.954545 567.341223 
L 369 567.637226 
L 376.045455 567.836263 
L 383.090909 568.162888 
L 390.136364 568.346614 
L 397.181818 568.657928 
L 404.227273 568.99476 
L 411.272727 569.234624 
L 418.318182 569.545938 
L 425.363636 569.464282 
L 432.409091 569.719458 
L 439.454545 569.79601 
L 446.5 570.056289 
L 453.545455 570.3625 
L 460.590909 570.597261 
L 467.636364 570.980024 
L 474.681818 571.281131 
L 481.727273 571.648584 
L 488.772727 572.164038 
L 495.818182 572.342661 
L 502.863636 572.60294 
L 509.909091 572.618251 
L 516.954545 573.164326 
L 524 573.09798 
L 531.045455 573.143912 
L 538.090909 573.052049 
L 545.136364 573.123498 
L 552.181818 573.210258 
L 559.227273 573.08267 
L 566.272727 572.965289 
L 573.318182 572.873426 
L 580.363636 573.021428 
L 587.409091 572.847909 
L 594.454545 572.58763 
L 601.5 572.511077 
L 608.545455 572.460042 
L 615.590909 572.230384 
L 622.636364 571.791482 
" clip-path="url(#pce3e89b0c0)" style="fill: none; stroke: #1f77b4; stroke-width: 1.5; stroke-linecap: square"/>
   </g>
   <g id="line2d_16">
    <path d="M 115.363636 483.23917 
L 122.409091 418.708916 
L 129.454545 396.740759 
L 136.5 382.68888 
L 143.545455 369.449919 
L 150.590909 359.675541 
L 157.636364 350.83989 
L 164.681818 341.965528 
L 171.727273 334.978299 
L 178.772727 328.939475 
L 185.818182 323.258722 
L 192.863636 318.177981 
L 199.909091 312.932721 
L 206.954545 308.626187 
L 214 304.464818 
L 221.045455 300.671198 
L 228.090909 297.409846 
L 235.136364 293.887199 
L 242.181818 290.751656 
L 249.227273 287.509659 
L 256.272727 284.770897 
L 263.318182 281.983748 
L 270.363636 275.761049 
L 277.409091 272.644861 
L 284.454545 278.112707 
L 291.5 284.567668 
L 298.545455 286.841904 
L 305.590909 288.361288 
L 312.636364 289.716152 
L 319.681818 290.945208 
L 326.727273 291.971033 
L 333.772727 293.809778 
L 340.818182 295.958206 
L 347.863636 296.635638 
L 354.909091 298.222765 
L 361.954545 298.619546 
L 369 300.38087 
L 376.045455 301.000237 
L 383.090909 301.397018 
L 390.136364 302.316391 
L 397.181818 303.361572 
L 404.227273 305.093863 
L 411.272727 306.119688 
L 418.318182 307.387454 
L 425.363636 308.345537 
L 432.409091 309.419751 
L 439.454545 310.51332 
L 446.5 311.839151 
L 453.545455 313.397245 
L 460.590909 315.003728 
L 467.636364 316.20375 
L 474.681818 317.790877 
L 481.727273 318.54573 
L 488.772727 320.142534 
L 495.818182 321.729661 
L 502.863636 323.47163 
L 509.909091 324.391002 
L 516.954545 326.142648 
L 524 327.729775 
L 531.045455 329.442711 
L 538.090909 331.078225 
L 545.136364 332.95568 
L 552.181818 333.516981 
L 559.227273 334.746037 
L 566.272727 336.139611 
L 573.318182 336.875109 
L 580.363636 337.804159 
L 587.409091 339.952587 
L 594.454545 341.297774 
L 601.5 342.613928 
L 608.545455 344.70429 
L 615.590909 346.465613 
L 622.636364 348.817271 
" clip-path="url(#pce3e89b0c0)" style="fill: none; stroke: #ff7f0e; stroke-width: 1.5; stroke-linecap: square"/>
   </g>
   <g id="line2d_17">
    <path d="M 115.363636 556.694331 
L 122.409091 520.666893 
L 129.454545 505.06123 
L 136.5 495.260419 
L 143.545455 486.917654 
L 150.590909 480.438457 
L 157.636364 474.33744 
L 164.681818 469.111252 
L 171.727273 464.345259 
L 178.772727 460.080471 
L 185.818182 456.480917 
L 192.863636 452.835798 
L 199.909091 449.48229 
L 206.954545 446.520631 
L 214 444.060176 
L 221.045455 441.162307 
L 228.090909 438.751973 
L 235.136364 436.687925 
L 242.181818 434.988388 
L 249.227273 432.906114 
L 256.272727 430.83751 
L 263.318182 429.042289 
L 270.363636 426.139864 
L 277.409091 424.353756 
L 284.454545 428.06722 
L 291.5 432.614505 
L 298.545455 435.097742 
L 305.590909 436.646917 
L 312.636364 438.218874 
L 319.681818 439.380756 
L 326.727273 440.656547 
L 333.772727 441.882218 
L 340.818182 442.606685 
L 347.863636 443.618206 
L 354.909091 444.424688 
L 361.954545 445.404314 
L 369 446.147006 
L 376.045455 446.921594 
L 383.090909 447.4957 
L 390.136364 448.557341 
L 397.181818 449.495959 
L 404.227273 450.060952 
L 411.272727 450.954006 
L 418.318182 451.824278 
L 425.363636 453.072731 
L 432.409091 453.829093 
L 439.454545 454.562673 
L 446.5 455.706329 
L 453.545455 456.603939 
L 460.590909 457.560783 
L 467.636364 458.408273 
L 474.681818 459.761523 
L 481.727273 460.595344 
L 488.772727 461.811902 
L 495.818182 462.777859 
L 502.863636 463.566115 
L 509.909091 464.317921 
L 516.954545 465.17908 
L 524 466.514105 
L 531.045455 467.844573 
L 538.090909 468.660168 
L 545.136364 469.498545 
L 552.181818 470.2139 
L 559.227273 471.125179 
L 566.272727 472.077467 
L 573.318182 473.070761 
L 580.363636 474.036718 
L 587.409091 474.838644 
L 594.454545 475.490209 
L 601.5 476.37415 
L 608.545455 476.784226 
L 615.590909 477.522362 
L 622.636364 478.652349 
" clip-path="url(#pce3e89b0c0)" style="fill: none; stroke: #2ca02c; stroke-width: 1.5; stroke-linecap: square"/>
   </g>
   <g id="line2d_18">
    <path d="M 115.363636 420.547596 
L 122.409091 347.089826 
L 129.454545 319.922593 
L 136.5 303.197291 
L 143.545455 289.446725 
L 150.590909 278.428059 
L 157.636364 269.777041 
L 164.681818 258.090577 
L 171.727273 248.255736 
L 178.772727 239.301173 
L 185.818182 232.562485 
L 192.863636 225.854151 
L 199.909091 218.20483 
L 206.954545 212.346421 
L 214 206.002341 
L 221.045455 200.022514 
L 228.090909 196.319271 
L 235.136364 191.978585 
L 242.181818 187.000455 
L 249.227273 181.71878 
L 256.272727 177.165613 
L 263.318182 173.037408 
L 270.363636 159.377905 
L 277.409091 151.121494 
L 284.454545 151.850001 
L 291.5 152.821344 
L 298.545455 151.000077 
L 305.590909 147.357543 
L 312.636364 144.139971 
L 319.681818 141.924096 
L 326.727273 141.013462 
L 333.772727 141.165235 
L 340.818182 138.767233 
L 347.863636 138.615461 
L 354.909091 136.490649 
L 361.954545 135.155053 
L 369 135.519307 
L 376.045455 133.303432 
L 383.090909 132.908824 
L 390.136364 130.875076 
L 397.181818 129.144872 
L 404.227273 129.53948 
L 411.272727 129.023455 
L 418.318182 127.293251 
L 425.363636 126.959352 
L 432.409091 126.625453 
L 439.454545 125.077376 
L 446.5 124.166742 
L 453.545455 124.227451 
L 460.590909 123.316818 
L 467.636364 122.770438 
L 474.681818 122.861501 
L 481.727273 120.979525 
L 488.772727 120.433145 
L 495.818182 119.734993 
L 502.863636 119.886765 
L 509.909091 120.099246 
L 516.954545 118.945777 
L 524 118.915423 
L 531.045455 117.640536 
L 538.090909 116.183522 
L 545.136364 116.153168 
L 552.181818 115.667496 
L 559.227273 114.696154 
L 566.272727 112.69276 
L 573.318182 111.6 
L 580.363636 112.449925 
L 587.409091 112.207089 
L 594.454545 113.299849 
L 601.5 114.878281 
L 608.545455 115.819269 
L 615.590909 117.094156 
L 622.636364 119.097549 
" clip-path="url(#pce3e89b0c0)" style="fill: none; stroke: #d62728; stroke-width: 1.5; stroke-linecap: square"/>
   </g>
   <g id="patch_3">
    <path d="M 90 640.8 
L 90 86.4 
" style="fill: none; stroke: #000000; stroke-width: 0.8; stroke-linejoin: miter; stroke-linecap: square"/>
   </g>
   <g id="patch_4">
    <path d="M 648 640.8 
L 648 86.4 
" style="fill: none; stroke: #000000; stroke-width: 0.8; stroke-linejoin: miter; stroke-linecap: square"/>
   </g>
   <g id="patch_5">
    <path d="M 90 640.8 
L 648 640.8 
" style="fill: none; stroke: #000000; stroke-width: 0.8; stroke-linejoin: miter; stroke-linecap: square"/>
   </g>
   <g id="patch_6">
    <path d="M 90 86.4 
L 648 86.4 
" style="fill: none; stroke: #000000; stroke-width: 0.8; stroke-linejoin: miter; stroke-linecap: square"/>
   </g>
   <g id="legend_1">
    <g id="patch_7">
     <path d="M 97 153.1125 
L 136.7 153.1125 
Q 138.7 153.1125 138.7 151.1125 
L 138.7 93.4 
Q 138.7 91.4 136.7 91.4 
L 97 91.4 
Q 95 91.4 95 93.4 
L 95 151.1125 
Q 95 153.1125 97 153.1125 
z
" style="fill: #ffffff; opacity: 0.8; stroke: #cccccc; stroke-linejoin: miter"/>
    </g>
    <g id="line2d_19">
     <path d="M 99 99.498437 
L 109 99.498437 
L 119 99.498437 
" style="fill: none; stroke: #1f77b4; stroke-width: 1.5; stroke-linecap: square"/>
    </g>
    <g id="text_16">
     <!-- A -->
     <g transform="translate(127 102.998437)scale(0.1 -0.1)">
      <defs>
       <path id="DejaVuSans-41" d="M 2188 4044 
L 1331 1722 
L 3047 1722 
L 2188 4044 
z
M 1831 4666 
L 2547 4666 
L 4325 0 
L 3669 0 
L 3244 1197 
L 1141 1197 
L 716 0 
L 50 0 
L 1831 4666 
z
" transform="scale(0.015625)"/>
      </defs>
      <use xlink:href="#DejaVuSans-41"/>
     </g>
    </g>
    <g id="line2d_20">
     <path d="M 99 114.176562 
L 109 114.176562 
L 119 114.176562 
" style="fill: none; stroke: #ff7f0e; stroke-width: 1.5; stroke-linecap: square"/>
    </g>
    <g id="text_17">
     <!-- B -->
     <g transform="translate(127 117.676562)scale(0.1 -0.1)">
      <defs>
       <path id="DejaVuSans-42" d="M 1259 2228 
L 1259 519 
L 2272 519 
Q 2781 519 3026 730 
Q 3272 941 3272 1375 
Q 3272 1813 3026 2020 
Q 2781 2228 2272 2228 
L 1259 2228 
z
M 1259 4147 
L 1259 2741 
L 2194 2741 
Q 2656 2741 2882 2914 
Q 3109 3088 3109 3444 
Q 3109 3797 2882 3972 
Q 2656 4147 2194 4147 
L 1259 4147 
z
M 628 4666 
L 2241 4666 
Q 2963 4666 3353 4366 
Q 3744 4066 3744 3513 
Q 3744 3084 3544 2831 
Q 3344 2578 2956 2516 
Q 3422 2416 3680 2098 
Q 3938 1781 3938 1306 
Q 3938 681 3513 340 
Q 3088 0 2303 0 
L 628 0 
L 628 4666 
z
" transform="scale(0.015625)"/>
      </defs>
      <use xlink:href="#DejaVuSans-42"/>
     </g>
    </g>
    <g id="line2d_21">
     <path d="M 99 128.854687 
L 109 128.854687 
L 119 128.854687 
" style="fill: none; stroke: #2ca02c; stroke-width: 1.5; stroke-linecap: square"/>
    </g>
    <g id="text_18">
     <!-- C -->
     <g transform="translate(127 132.354687)scale(0.1 -0.1)">
      <defs>
       <path id="DejaVuSans-43" d="M 4122 4306 
L 4122 3641 
Q 3803 3938 3442 4084 
Q 3081 4231 2675 4231 
Q 1875 4231 1450 3742 
Q 1025 3253 1025 2328 
Q 1025 1406 1450 917 
Q 1875 428 2675 428 
Q 3081 428 3442 575 
Q 3803 722 4122 1019 
L 4122 359 
Q 3791 134 3420 21 
Q 3050 -91 2638 -91 
Q 1578 -91 968 557 
Q 359 1206 359 2328 
Q 359 3453 968 4101 
Q 1578 4750 2638 4750 
Q 3056 4750 3426 4639 
Q 3797 4528 4122 4306 
z
" transform="scale(0.015625)"/>
      </defs>
      <use xlink:href="#DejaVuSans-43"/>
     </g>
    </g>
    <g id="line2d_22">
     <path d="M 99 143.532812 
L 109 143.532812 
L 119 143.532812 
" style="fill: none; stroke: #d62728; stroke-width: 1.5; stroke-linecap: square"/>
    </g>
    <g id="text_19">
     <!-- D -->
     <g transform="translate(127 147.032812)scale(0.1 -0.1)">
      <defs>
       <path id="DejaVuSans-44" d="M 1259 4147 
L 1259 519 
L 2022 519 
Q 2988 519 3436 956 
Q 3884 1394 3884 2338 
Q 3884 3275 3436 3711 
Q 2988 4147 2022 4147 
L 1259 4147 
z
M 628 4666 
L 1925 4666 
Q 3281 4666 3915 4102 
Q 4550 3538 4550 2338 
Q 4550 1131 3912 565 
Q 3275 0 1925 0 
L 628 0 
L 628 4666 
z
" transform="scale(0.015625)"/>
      </defs>
      <use xlink:href="#DejaVuSans-44"/>
     </g>
    </g>
   </g>
  </g>
 </g>
 <defs>
  <clipPath id="pce3e89b0c0">
   <rect x="90" y="86.4" width="558" height="554.4"/>
  </clipPath>
 </defs>
</svg>
