<?xml version="1.0" encoding="utf-8" standalone="no"?>
<!DOCTYPE svg PUBLIC "-//W3C//DTD SVG 1.1//EN"
  "http://www.w3.org/Graphics/SVG/1.1/DTD/svg11.dtd">
<svg xmlns:xlink="http://www.w3.org/1999/xlink" width="720pt" height="720pt" viewBox="0 0 720 720" xmlns="http://www.w3.org/2000/svg" version="1.1">
 <metadata>
  <rdf:RDF xmlns:dc="http://purl.org/dc/elements/1.1/" xmlns:cc="http://creativecommons.org/ns#" xmlns:rdf="http://www.w3.org/1999/02/22-rdf-syntax-ns#">
   <cc:Work>
    <dc:type rdf:resource="http://purl.org/dc/dcmitype/StillImage"/>
    <dc:date>2022-12-03T17:13:40.008697</dc:date>
    <dc:format>image/svg+xml</dc:format>
    <dc:creator>
     <cc:Agent>
      <dc:title>Matplotlib v3.5.3, https://matplotlib.org/</dc:title>
     </cc:Agent>
    </dc:creator>
   </cc:Work>
  </rdf:RDF>
 </metadata>
 <defs>
  <style type="text/css">*{stroke-linejoin: round; stroke-linecap: butt}</style>
 </defs>
 <g id="figure_1">
  <g id="patch_1">
   <path d="M 0 720 
L 720 720 
L 720 0 
L 0 0 
z
" style="fill: #ffffff"/>
  </g>
  <g id="axes_1">
   <g id="patch_2">
    <path d="M 90 640.8 
L 648 640.8 
L 648 86.4 
L 90 86.4 
z
" style="fill: #e5e5e5"/>
   </g>
   <g id="matplotlib.axis_1">
    <g id="xtick_1">
     <g id="line2d_1">
      <path d="M 115.363636 640.8 
L 115.363636 86.4 
" clip-path="url(#p0c951116c6)" style="fill: none; stroke: #ffffff; stroke-width: 0.8; stroke-linecap: square"/>
     </g>
     <g id="line2d_2">
      <defs>
       <path id="mccc9ba4ddc" d="M 0 0 
L 0 3.5 
" style="stroke: #555555; stroke-width: 0.8"/>
      </defs>
      <g>
       <use xlink:href="#mccc9ba4ddc" x="115.363636" y="640.8" style="fill: #555555; stroke: #555555; stroke-width: 0.8"/>
      </g>
     </g>
     <g id="text_1">
      <!-- 0 -->
      <g style="fill: #555555" transform="translate(112.182386 655.398438)scale(0.1 -0.1)">
       <defs>
        <path id="DejaVuSans-30" d="M 2034 4250 
Q 1547 4250 1301 3770 
Q 1056 3291 1056 2328 
Q 1056 1369 1301 889 
Q 1547 409 2034 409 
Q 2525 409 2770 889 
Q 3016 1369 3016 2328 
Q 3016 3291 2770 3770 
Q 2525 4250 2034 4250 
z
M 2034 4750 
Q 2819 4750 3233 4129 
Q 3647 3509 3647 2328 
Q 3647 1150 3233 529 
Q 2819 -91 2034 -91 
Q 1250 -91 836 529 
Q 422 1150 422 2328 
Q 422 3509 836 4129 
Q 1250 4750 2034 4750 
z
" transform="scale(0.015625)"/>
       </defs>
       <use xlink:href="#DejaVuSans-30"/>
      </g>
     </g>
    </g>
    <g id="xtick_2">
     <g id="line2d_3">
      <path d="M 199.909091 640.8 
L 199.909091 86.4 
" clip-path="url(#p0c951116c6)" style="fill: none; stroke: #ffffff; stroke-width: 0.8; stroke-linecap: square"/>
     </g>
     <g id="line2d_4">
      <g>
       <use xlink:href="#mccc9ba4ddc" x="199.909091" y="640.8" style="fill: #555555; stroke: #555555; stroke-width: 0.8"/>
      </g>
     </g>
     <g id="text_2">
      <!-- 20 -->
      <g style="fill: #555555" transform="translate(193.546591 655.398438)scale(0.1 -0.1)">
       <defs>
        <path id="DejaVuSans-32" d="M 1228 531 
L 3431 531 
L 3431 0 
L 469 0 
L 469 531 
Q 828 903 1448 1529 
Q 2069 2156 2228 2338 
Q 2531 2678 2651 2914 
Q 2772 3150 2772 3378 
Q 2772 3750 2511 3984 
Q 2250 4219 1831 4219 
Q 1534 4219 1204 4116 
Q 875 4013 500 3803 
L 500 4441 
Q 881 4594 1212 4672 
Q 1544 4750 1819 4750 
Q 2544 4750 2975 4387 
Q 3406 4025 3406 3419 
Q 3406 3131 3298 2873 
Q 3191 2616 2906 2266 
Q 2828 2175 2409 1742 
Q 1991 1309 1228 531 
z
" transform="scale(0.015625)"/>
       </defs>
       <use xlink:href="#DejaVuSans-32"/>
       <use xlink:href="#DejaVuSans-30" x="63.623047"/>
      </g>
     </g>
    </g>
    <g id="xtick_3">
     <g id="line2d_5">
      <path d="M 284.454545 640.8 
L 284.454545 86.4 
" clip-path="url(#p0c951116c6)" style="fill: none; stroke: #ffffff; stroke-width: 0.8; stroke-linecap: square"/>
     </g>
     <g id="line2d_6">
      <g>
       <use xlink:href="#mccc9ba4ddc" x="284.454545" y="640.8" style="fill: #555555; stroke: #555555; stroke-width: 0.8"/>
      </g>
     </g>
     <g id="text_3">
      <!-- 40 -->
      <g style="fill: #555555" transform="translate(278.092045 655.398438)scale(0.1 -0.1)">
       <defs>
        <path id="DejaVuSans-34" d="M 2419 4116 
L 825 1625 
L 2419 1625 
L 2419 4116 
z
M 2253 4666 
L 3047 4666 
L 3047 1625 
L 3713 1625 
L 3713 1100 
L 3047 1100 
L 3047 0 
L 2419 0 
L 2419 1100 
L 313 1100 
L 313 1709 
L 2253 4666 
z
" transform="scale(0.015625)"/>
       </defs>
       <use xlink:href="#DejaVuSans-34"/>
       <use xlink:href="#DejaVuSans-30" x="63.623047"/>
      </g>
     </g>
    </g>
    <g id="xtick_4">
     <g id="line2d_7">
      <path d="M 369 640.8 
L 369 86.4 
" clip-path="url(#p0c951116c6)" style="fill: none; stroke: #ffffff; stroke-width: 0.8; stroke-linecap: square"/>
     </g>
     <g id="line2d_8">
      <g>
       <use xlink:href="#mccc9ba4ddc" x="369" y="640.8" style="fill: #555555; stroke: #555555; stroke-width: 0.8"/>
      </g>
     </g>
     <g id="text_4">
      <!-- 60 -->
      <g style="fill: #555555" transform="translate(362.6375 655.398438)scale(0.1 -0.1)">
       <defs>
        <path id="DejaVuSans-36" d="M 2113 2584 
Q 1688 2584 1439 2293 
Q 1191 2003 1191 1497 
Q 1191 994 1439 701 
Q 1688 409 2113 409 
Q 2538 409 2786 701 
Q 3034 994 3034 1497 
Q 3034 2003 2786 2293 
Q 2538 2584 2113 2584 
z
M 3366 4563 
L 3366 3988 
Q 3128 4100 2886 4159 
Q 2644 4219 2406 4219 
Q 1781 4219 1451 3797 
Q 1122 3375 1075 2522 
Q 1259 2794 1537 2939 
Q 1816 3084 2150 3084 
Q 2853 3084 3261 2657 
Q 3669 2231 3669 1497 
Q 3669 778 3244 343 
Q 2819 -91 2113 -91 
Q 1303 -91 875 529 
Q 447 1150 447 2328 
Q 447 3434 972 4092 
Q 1497 4750 2381 4750 
Q 2619 4750 2861 4703 
Q 3103 4656 3366 4563 
z
" transform="scale(0.015625)"/>
       </defs>
       <use xlink:href="#DejaVuSans-36"/>
       <use xlink:href="#DejaVuSans-30" x="63.623047"/>
      </g>
     </g>
    </g>
    <g id="xtick_5">
     <g id="line2d_9">
      <path d="M 453.545455 640.8 
L 453.545455 86.4 
" clip-path="url(#p0c951116c6)" style="fill: none; stroke: #ffffff; stroke-width: 0.8; stroke-linecap: square"/>
     </g>
     <g id="line2d_10">
      <g>
       <use xlink:href="#mccc9ba4ddc" x="453.545455" y="640.8" style="fill: #555555; stroke: #555555; stroke-width: 0.8"/>
      </g>
     </g>
     <g id="text_5">
      <!-- 80 -->
      <g style="fill: #555555" transform="translate(447.182955 655.398438)scale(0.1 -0.1)">
       <defs>
        <path id="DejaVuSans-38" d="M 2034 2216 
Q 1584 2216 1326 1975 
Q 1069 1734 1069 1313 
Q 1069 891 1326 650 
Q 1584 409 2034 409 
Q 2484 409 2743 651 
Q 3003 894 3003 1313 
Q 3003 1734 2745 1975 
Q 2488 2216 2034 2216 
z
M 1403 2484 
Q 997 2584 770 2862 
Q 544 3141 544 3541 
Q 544 4100 942 4425 
Q 1341 4750 2034 4750 
Q 2731 4750 3128 4425 
Q 3525 4100 3525 3541 
Q 3525 3141 3298 2862 
Q 3072 2584 2669 2484 
Q 3125 2378 3379 2068 
Q 3634 1759 3634 1313 
Q 3634 634 3220 271 
Q 2806 -91 2034 -91 
Q 1263 -91 848 271 
Q 434 634 434 1313 
Q 434 1759 690 2068 
Q 947 2378 1403 2484 
z
M 1172 3481 
Q 1172 3119 1398 2916 
Q 1625 2713 2034 2713 
Q 2441 2713 2670 2916 
Q 2900 3119 2900 3481 
Q 2900 3844 2670 4047 
Q 2441 4250 2034 4250 
Q 1625 4250 1398 4047 
Q 1172 3844 1172 3481 
z
" transform="scale(0.015625)"/>
       </defs>
       <use xlink:href="#DejaVuSans-38"/>
       <use xlink:href="#DejaVuSans-30" x="63.623047"/>
      </g>
     </g>
    </g>
    <g id="xtick_6">
     <g id="line2d_11">
      <path d="M 538.090909 640.8 
L 538.090909 86.4 
" clip-path="url(#p0c951116c6)" style="fill: none; stroke: #ffffff; stroke-width: 0.8; stroke-linecap: square"/>
     </g>
     <g id="line2d_12">
      <g>
       <use xlink:href="#mccc9ba4ddc" x="538.090909" y="640.8" style="fill: #555555; stroke: #555555; stroke-width: 0.8"/>
      </g>
     </g>
     <g id="text_6">
      <!-- 100 -->
      <g style="fill: #555555" transform="translate(528.547159 655.398438)scale(0.1 -0.1)">
       <defs>
        <path id="DejaVuSans-31" d="M 794 531 
L 1825 531 
L 1825 4091 
L 703 3866 
L 703 4441 
L 1819 4666 
L 2450 4666 
L 2450 531 
L 3481 531 
L 3481 0 
L 794 0 
L 794 531 
z
" transform="scale(0.015625)"/>
       </defs>
       <use xlink:href="#DejaVuSans-31"/>
       <use xlink:href="#DejaVuSans-30" x="63.623047"/>
       <use xlink:href="#DejaVuSans-30" x="127.246094"/>
      </g>
     </g>
    </g>
    <g id="xtick_7">
     <g id="line2d_13">
      <path d="M 622.636364 640.8 
L 622.636364 86.4 
" clip-path="url(#p0c951116c6)" style="fill: none; stroke: #ffffff; stroke-width: 0.8; stroke-linecap: square"/>
     </g>
     <g id="line2d_14">
      <g>
       <use xlink:href="#mccc9ba4ddc" x="622.636364" y="640.8" style="fill: #555555; stroke: #555555; stroke-width: 0.8"/>
      </g>
     </g>
     <g id="text_7">
      <!-- 120 -->
      <g style="fill: #555555" transform="translate(613.092614 655.398438)scale(0.1 -0.1)">
       <use xlink:href="#DejaVuSans-31"/>
       <use xlink:href="#DejaVuSans-32" x="63.623047"/>
       <use xlink:href="#DejaVuSans-30" x="127.246094"/>
      </g>
     </g>
    </g>
    <g id="text_8">
     <!-- hr -->
     <g style="fill: #555555" transform="translate(362.730937 670.59625)scale(0.12 -0.12)">
      <defs>
       <path id="DejaVuSans-68" d="M 3513 2113 
L 3513 0 
L 2938 0 
L 2938 2094 
Q 2938 2591 2744 2837 
Q 2550 3084 2163 3084 
Q 1697 3084 1428 2787 
Q 1159 2491 1159 1978 
L 1159 0 
L 581 0 
L 581 4863 
L 1159 4863 
L 1159 2956 
Q 1366 3272 1645 3428 
Q 1925 3584 2291 3584 
Q 2894 3584 3203 3211 
Q 3513 2838 3513 2113 
z
" transform="scale(0.015625)"/>
       <path id="DejaVuSans-72" d="M 2631 2963 
Q 2534 3019 2420 3045 
Q 2306 3072 2169 3072 
Q 1681 3072 1420 2755 
Q 1159 2438 1159 1844 
L 1159 0 
L 581 0 
L 581 3500 
L 1159 3500 
L 1159 2956 
Q 1341 3275 1631 3429 
Q 1922 3584 2338 3584 
Q 2397 3584 2469 3576 
Q 2541 3569 2628 3553 
L 2631 2963 
z
" transform="scale(0.015625)"/>
      </defs>
      <use xlink:href="#DejaVuSans-68"/>
      <use xlink:href="#DejaVuSans-72" x="63.378906"/>
     </g>
    </g>
   </g>
   <g id="matplotlib.axis_2">
    <g id="ytick_1">
     <g id="line2d_15">
      <path d="M 90 558.162636 
L 648 558.162636 
" clip-path="url(#p0c951116c6)" style="fill: none; stroke: #ffffff; stroke-width: 0.8; stroke-linecap: square"/>
     </g>
     <g id="line2d_16">
      <defs>
       <path id="m5080bb3d63" d="M 0 0 
L -3.5 0 
" style="stroke: #555555; stroke-width: 0.8"/>
      </defs>
      <g>
       <use xlink:href="#m5080bb3d63" x="90" y="558.162636" style="fill: #555555; stroke: #555555; stroke-width: 0.8"/>
      </g>
     </g>
     <g id="text_9">
      <!-- 2 -->
      <g style="fill: #555555" transform="translate(76.6375 561.961854)scale(0.1 -0.1)">
       <use xlink:href="#DejaVuSans-32"/>
      </g>
     </g>
    </g>
    <g id="ytick_2">
     <g id="line2d_17">
      <path d="M 90 471.357804 
L 648 471.357804 
" clip-path="url(#p0c951116c6)" style="fill: none; stroke: #ffffff; stroke-width: 0.8; stroke-linecap: square"/>
     </g>
     <g id="line2d_18">
      <g>
       <use xlink:href="#m5080bb3d63" x="90" y="471.357804" style="fill: #555555; stroke: #555555; stroke-width: 0.8"/>
      </g>
     </g>
     <g id="text_10">
      <!-- 4 -->
      <g style="fill: #555555" transform="translate(76.6375 475.157022)scale(0.1 -0.1)">
       <use xlink:href="#DejaVuSans-34"/>
      </g>
     </g>
    </g>
    <g id="ytick_3">
     <g id="line2d_19">
      <path d="M 90 384.552972 
L 648 384.552972 
" clip-path="url(#p0c951116c6)" style="fill: none; stroke: #ffffff; stroke-width: 0.8; stroke-linecap: square"/>
     </g>
     <g id="line2d_20">
      <g>
       <use xlink:href="#m5080bb3d63" x="90" y="384.552972" style="fill: #555555; stroke: #555555; stroke-width: 0.8"/>
      </g>
     </g>
     <g id="text_11">
      <!-- 6 -->
      <g style="fill: #555555" transform="translate(76.6375 388.35219)scale(0.1 -0.1)">
       <use xlink:href="#DejaVuSans-36"/>
      </g>
     </g>
    </g>
    <g id="ytick_4">
     <g id="line2d_21">
      <path d="M 90 297.74814 
L 648 297.74814 
" clip-path="url(#p0c951116c6)" style="fill: none; stroke: #ffffff; stroke-width: 0.8; stroke-linecap: square"/>
     </g>
     <g id="line2d_22">
      <g>
       <use xlink:href="#m5080bb3d63" x="90" y="297.74814" style="fill: #555555; stroke: #555555; stroke-width: 0.8"/>
      </g>
     </g>
     <g id="text_12">
      <!-- 8 -->
      <g style="fill: #555555" transform="translate(76.6375 301.547358)scale(0.1 -0.1)">
       <use xlink:href="#DejaVuSans-38"/>
      </g>
     </g>
    </g>
    <g id="ytick_5">
     <g id="line2d_23">
      <path d="M 90 210.943308 
L 648 210.943308 
" clip-path="url(#p0c951116c6)" style="fill: none; stroke: #ffffff; stroke-width: 0.8; stroke-linecap: square"/>
     </g>
     <g id="line2d_24">
      <g>
       <use xlink:href="#m5080bb3d63" x="90" y="210.943308" style="fill: #555555; stroke: #555555; stroke-width: 0.8"/>
      </g>
     </g>
     <g id="text_13">
      <!-- 10 -->
      <g style="fill: #555555" transform="translate(70.275 214.742526)scale(0.1 -0.1)">
       <use xlink:href="#DejaVuSans-31"/>
       <use xlink:href="#DejaVuSans-30" x="63.623047"/>
      </g>
     </g>
    </g>
    <g id="ytick_6">
     <g id="line2d_25">
      <path d="M 90 124.138476 
L 648 124.138476 
" clip-path="url(#p0c951116c6)" style="fill: none; stroke: #ffffff; stroke-width: 0.8; stroke-linecap: square"/>
     </g>
     <g id="line2d_26">
      <g>
       <use xlink:href="#m5080bb3d63" x="90" y="124.138476" style="fill: #555555; stroke: #555555; stroke-width: 0.8"/>
      </g>
     </g>
     <g id="text_14">
      <!-- 12 -->
      <g style="fill: #555555" transform="translate(70.275 127.937694)scale(0.1 -0.1)">
       <use xlink:href="#DejaVuSans-31"/>
       <use xlink:href="#DejaVuSans-32" x="63.623047"/>
      </g>
     </g>
    </g>
   </g>
   <g id="line2d_27">
    <path d="M 115.363636 585.389305 
L 119.590909 558.513194 
L 123.818182 545.976573 
L 128.045455 537.279396 
L 132.272727 529.567121 
L 136.5 523.206997 
L 140.727273 517.59807 
L 144.954545 512.840497 
L 149.181818 507.999459 
L 153.409091 503.892922 
L 157.636364 500.554275 
L 161.863636 497.282401 
L 166.090909 493.826901 
L 170.318182 491.239449 
L 174.545455 488.651997 
L 178.772727 485.88092 
L 183 483.293468 
L 187.227273 481.323666 
L 191.454545 479.136852 
L 195.681818 477.016811 
L 199.909091 475.264021 
L 204.136364 473.678164 
L 208.363636 470.589915 
L 212.590909 468.136009 
L 216.818182 469.12091 
L 221.045455 471.925374 
L 225.272727 472.843502 
L 229.5 472.926968 
L 233.727273 473.694857 
L 237.954545 473.077207 
L 242.181818 473.14398 
L 246.409091 472.910275 
L 250.636364 472.910275 
L 254.863636 472.693263 
L 259.090909 472.225852 
L 263.318182 471.49135 
L 267.545455 471.624895 
L 271.772727 470.723461 
L 276 470.339516 
L 280.227273 470.272743 
L 284.454545 470.639994 
L 288.681818 470.489755 
L 292.909091 469.73856 
L 297.136364 469.07083 
L 301.363636 469.004057 
L 305.590909 468.085929 
L 309.818182 467.284654 
L 314.045455 467.217881 
L 318.272727 467.284654 
L 322.5 467.484973 
L 326.727273 467.284654 
L 330.954545 467.93569 
L 335.181818 467.050948 
L 339.409091 467.384813 
L 343.636364 467.401506 
L 347.863636 467.401506 
L 352.090909 466.767163 
L 356.318182 466.550151 
L 360.545455 466.583538 
L 364.772727 466.299753 
L 369 465.515171 
L 373.227273 465.61533 
L 377.454545 464.930907 
L 381.681818 464.747282 
L 385.909091 464.980987 
L 390.136364 465.231386 
L 394.363636 464.797362 
L 398.590909 464.279871 
L 402.818182 463.077958 
L 407.045455 462.276683 
L 411.272727 461.291782 
L 415.5 460.991303 
L 419.727273 460.607359 
L 423.954545 460.40704 
L 428.181818 460.557279 
L 432.409091 460.373654 
L 436.636364 459.705924 
L 440.863636 459.622458 
L 445.090909 459.639151 
L 449.318182 458.887956 
L 453.545455 458.787796 
L 457.772727 458.570784 
L 462 458.787796 
L 466.227273 458.670944 
L 470.454545 459.32198 
L 474.681818 459.188434 
L 478.909091 459.088274 
L 483.136364 459.121661 
L 487.363636 458.904649 
L 491.590909 458.554091 
L 495.818182 458.120067 
L 500.045455 458.737717 
L 504.272727 458.286999 
L 508.5 458.537398 
L 512.727273 458.771103 
L 516.954545 458.520704 
L 521.181818 458.420545 
L 525.409091 458.837876 
L 529.636364 459.238514 
L 533.863636 458.804489 
L 538.090909 458.721023 
L 542.318182 458.18684 
L 546.545455 458.587477 
L 550.772727 457.919748 
L 555 457.652656 
L 559.227273 457.61927 
L 563.454545 457.418951 
L 567.681818 457.085086 
L 571.909091 457.218632 
L 576.136364 457.452337 
L 580.363636 457.502417 
L 584.590909 457.602576 
L 588.818182 457.46903 
L 593.045455 457.686043 
L 597.272727 457.953134 
L 601.5 458.453931 
L 605.727273 458.988115 
L 609.954545 459.472219 
L 614.181818 460.256801 
L 618.409091 460.941224 
L 622.636364 461.892738 
" clip-path="url(#p0c951116c6)" style="fill: none; stroke: #e24a33; stroke-width: 1.5; stroke-linecap: square"/>
   </g>
   <g id="line2d_28">
    <path d="M 115.363636 410.766653 
L 119.590909 336.018048 
L 123.818182 310.389954 
L 128.045455 294.096825 
L 132.272727 279.801585 
L 136.5 268.985427 
L 140.727273 259.443785 
L 144.954545 248.868752 
L 149.181818 240.016037 
L 153.409091 230.267717 
L 157.636364 223.89514 
L 161.863636 218.245936 
L 166.090909 212.217823 
L 170.318182 206.18971 
L 174.545455 200.50606 
L 178.772727 195.132428 
L 183 190.998864 
L 187.227273 186.555283 
L 191.454545 182.008364 
L 195.681818 177.49589 
L 199.909091 173.43122 
L 204.136364 170.331047 
L 208.363636 158.65373 
L 212.590909 152.384492 
L 216.818182 153.796793 
L 221.045455 156.414717 
L 225.272727 154.864631 
L 229.5 151.282209 
L 233.727273 148.836517 
L 237.954545 147.424216 
L 242.181818 147.38977 
L 246.409091 147.217538 
L 250.636364 145.426327 
L 254.863636 146.390826 
L 259.090909 144.324044 
L 263.318182 142.395048 
L 267.545455 142.670618 
L 271.772727 141.878352 
L 276 141.120532 
L 280.227273 139.019304 
L 284.454545 137.710342 
L 288.681818 137.91702 
L 292.909091 138.571501 
L 297.136364 136.401381 
L 301.363636 135.781346 
L 305.590909 135.333543 
L 309.818182 133.232315 
L 314.045455 132.646727 
L 318.272727 133.163423 
L 322.5 131.992246 
L 326.727273 131.406658 
L 330.954545 132.818959 
L 335.181818 130.648838 
L 339.409091 129.959911 
L 343.636364 128.685395 
L 347.863636 128.995413 
L 352.090909 128.065361 
L 356.318182 127.720897 
L 360.545455 127.617558 
L 364.772727 126.584167 
L 369 124.345154 
L 373.227273 124.172922 
L 377.454545 122.898407 
L 381.681818 121.141642 
L 385.909091 119.488217 
L 390.136364 117.834792 
L 394.363636 117.421435 
L 398.590909 116.388044 
L 402.818182 116.732508 
L 407.045455 116.801401 
L 411.272727 117.249203 
L 415.5 118.42038 
L 419.727273 118.04147 
L 423.954545 118.110362 
L 428.181818 117.938131 
L 432.409091 118.385933 
L 436.636364 117.042525 
L 440.863636 116.250259 
L 445.090909 114.665726 
L 449.318182 117.28365 
L 453.545455 116.939186 
L 457.772727 117.938131 
L 462 117.318096 
L 466.227273 115.76801 
L 470.454545 114.665726 
L 474.681818 114.872404 
L 478.909091 114.734619 
L 483.136364 114.183477 
L 487.363636 114.390155 
L 491.590909 114.149031 
L 495.818182 114.975743 
L 500.045455 115.251314 
L 504.272727 115.905795 
L 508.5 114.562387 
L 512.727273 114.665726 
L 516.954545 113.87346 
L 521.181818 114.286816 
L 525.409091 112.771176 
L 529.636364 112.73673 
L 533.863636 112.392266 
L 538.090909 111.6 
L 542.318182 111.944464 
L 546.545455 112.35782 
L 550.772727 112.082249 
L 555 113.150086 
L 559.227273 111.6 
L 563.454545 111.875571 
L 567.681818 112.805623 
L 571.909091 113.563443 
L 576.136364 114.114584 
L 580.363636 114.734619 
L 584.590909 116.663615 
L 588.818182 117.731452 
L 593.045455 117.903684 
L 597.272727 119.074861 
L 601.5 120.349376 
L 605.727273 121.038303 
L 609.954545 122.243926 
L 614.181818 123.208424 
L 618.409091 124.3796 
L 622.636364 125.378545 
" clip-path="url(#p0c951116c6)" style="fill: none; stroke: #348abd; stroke-width: 1.5; stroke-linecap: square"/>
   </g>
   <g id="line2d_29">
    <path d="M 115.363636 615.6 
L 119.590909 600.797102 
L 123.818182 592.243727 
L 128.045455 586.325216 
L 132.272727 581.187895 
L 136.5 577.48055 
L 140.727273 573.932092 
L 144.954545 571.045659 
L 149.181818 568.331353 
L 153.409091 565.749452 
L 157.636364 563.617729 
L 161.863636 561.830259 
L 166.090909 559.830941 
L 170.318182 558.03023 
L 174.545455 556.772381 
L 178.772727 554.931949 
L 183 553.488733 
L 187.227273 552.244124 
L 191.454545 550.999516 
L 195.681818 549.741667 
L 199.909091 548.602982 
L 204.136364 547.623184 
L 208.363636 546.51098 
L 212.590909 545.676828 
L 216.818182 546.815512 
L 221.045455 549.251767 
L 225.272727 551.039237 
L 229.5 552.535416 
L 233.727273 553.435771 
L 237.954545 553.806505 
L 242.181818 554.071316 
L 246.409091 554.600936 
L 250.636364 555.342405 
L 254.863636 556.044153 
L 259.090909 556.73266 
L 263.318182 557.023951 
L 267.545455 557.222559 
L 271.772727 557.315242 
L 276 557.75218 
L 280.227273 558.136155 
L 284.454545 558.612813 
L 288.681818 559.023269 
L 292.909091 559.062991 
L 297.136364 559.129193 
L 301.363636 559.142434 
L 305.590909 559.539649 
L 309.818182 559.751498 
L 314.045455 560.148713 
L 318.272727 560.612131 
L 322.5 561.009347 
L 326.727273 561.525727 
L 330.954545 562.10831 
L 335.181818 562.37312 
L 339.409091 562.863019 
L 343.636364 563.339678 
L 347.863636 563.697172 
L 352.090909 563.670691 
L 356.318182 564.120868 
L 360.545455 564.571046 
L 364.772727 564.67697 
L 369 564.597527 
L 373.227273 565.007983 
L 377.454545 565.272793 
L 381.681818 565.418439 
L 385.909091 565.868617 
L 390.136364 566.437959 
L 394.363636 567.417757 
L 398.590909 568.357834 
L 402.818182 568.913936 
L 407.045455 569.364113 
L 411.272727 569.708367 
L 415.5 570.211506 
L 419.727273 570.132063 
L 423.954545 570.595481 
L 428.181818 570.873532 
L 432.409091 571.217786 
L 436.636364 571.667963 
L 440.863636 572.224065 
L 445.090909 572.700724 
L 449.318182 573.005256 
L 453.545455 573.12442 
L 457.772727 573.296547 
L 462 573.852649 
L 466.227273 574.024775 
L 470.454545 574.355788 
L 474.681818 574.673561 
L 478.909091 575.031055 
L 483.136364 575.494473 
L 487.363636 575.67984 
L 491.590909 576.169739 
L 495.818182 576.18298 
L 500.045455 575.93141 
L 504.272727 576.063815 
L 508.5 576.341866 
L 512.727273 576.421309 
L 516.954545 577.003892 
L 521.181818 577.361386 
L 525.409091 577.612956 
L 529.636364 577.546753 
L 533.863636 577.917488 
L 538.090909 578.063133 
L 542.318182 578.380906 
L 546.545455 578.976729 
L 550.772727 579.241539 
L 555 579.599033 
L 559.227273 580.02273 
L 563.454545 580.115413 
L 567.681818 580.525869 
L 571.909091 580.592072 
L 576.136364 580.406705 
L 580.363636 580.433186 
L 584.590909 580.737718 
L 588.818182 580.936325 
L 593.045455 581.108452 
L 597.272727 581.174655 
L 601.5 581.399744 
L 605.727273 581.333541 
L 609.954545 581.386503 
L 614.181818 581.002528 
L 618.409091 580.314021 
L 622.636364 579.797641 
" clip-path="url(#p0c951116c6)" style="fill: none; stroke: #988ed5; stroke-width: 1.5; stroke-linecap: square"/>
   </g>
   <g id="line2d_30">
    <path d="M 115.363636 490.559851 
L 119.590909 426.33431 
L 123.818182 402.905883 
L 128.045455 386.733707 
L 132.272727 372.626474 
L 136.5 361.414022 
L 140.727273 351.39808 
L 144.954545 341.150556 
L 149.181818 332.852184 
L 153.409091 325.924008 
L 157.636364 319.902863 
L 161.863636 314.094003 
L 166.090909 307.339514 
L 170.318182 302.920148 
L 174.545455 298.558678 
L 178.772727 293.791939 
L 183 290.356799 
L 187.227273 286.24621 
L 191.454545 282.926861 
L 195.681818 278.951362 
L 199.909091 275.130251 
L 204.136364 272.158276 
L 208.363636 264.921323 
L 212.590909 261.042317 
L 216.818182 264.535353 
L 221.045455 268.163478 
L 225.272727 269.012614 
L 229.5 269.109107 
L 233.727273 268.896823 
L 237.954545 269.475779 
L 242.181818 269.919645 
L 246.409091 271.328439 
L 250.636364 272.042485 
L 254.863636 272.003888 
L 259.090909 272.949516 
L 263.318182 272.988113 
L 267.545455 274.416205 
L 271.772727 273.779353 
L 276 273.43198 
L 280.227273 273.682861 
L 284.454545 273.374084 
L 288.681818 274.512698 
L 292.909091 273.972339 
L 297.136364 274.319712 
L 301.363636 274.802176 
L 305.590909 274.358309 
L 309.818182 274.589892 
L 314.045455 274.840773 
L 318.272727 275.168848 
L 322.5 276.558343 
L 326.727273 276.963612 
L 330.954545 276.751328 
L 335.181818 277.349583 
L 339.409091 278.198719 
L 343.636364 279.318034 
L 347.863636 280.495245 
L 352.090909 281.305784 
L 356.318182 282.193517 
L 360.545455 282.830368 
L 364.772727 283.254936 
L 369 284.451446 
L 373.227273 286.323404 
L 377.454545 286.670778 
L 381.681818 287.095346 
L 385.909091 287.230435 
L 390.136364 287.712899 
L 394.363636 288.812916 
L 398.590909 290.086619 
L 402.818182 290.800665 
L 407.045455 292.151563 
L 411.272727 293.039296 
L 415.5 293.77264 
L 419.727273 296.242854 
L 423.954545 296.68672 
L 428.181818 297.091989 
L 432.409091 298.288499 
L 436.636364 299.716591 
L 440.863636 299.909576 
L 445.090909 301.144683 
L 449.318182 301.685042 
L 453.545455 302.785059 
L 457.772727 303.788583 
L 462 303.904374 
L 466.227273 305.371063 
L 470.454545 306.239497 
L 474.681818 307.706186 
L 478.909091 308.671113 
L 483.136364 310.214996 
L 487.363636 310.581669 
L 491.590909 311.295715 
L 495.818182 312.820299 
L 500.045455 312.974688 
L 504.272727 314.094003 
L 508.5 314.78875 
L 512.727273 315.155423 
L 516.954545 316.448425 
L 521.181818 317.451949 
L 525.409091 319.015131 
L 529.636364 318.744951 
L 533.863636 319.651982 
L 538.090909 320.578312 
L 542.318182 322.141494 
L 546.545455 324.167841 
L 550.772727 326.309979 
L 555 327.506488 
L 559.227273 329.050371 
L 563.454545 331.038121 
L 567.681818 332.910079 
L 571.909091 333.662722 
L 576.136364 333.932902 
L 580.363636 334.994321 
L 584.590909 335.592576 
L 588.818182 336.538205 
L 593.045455 337.329445 
L 597.272727 338.834731 
L 601.5 338.815432 
L 605.727273 339.896151 
L 609.954545 340.880376 
L 614.181818 342.424259 
L 618.409091 343.794456 
L 622.636364 344.759383 
" clip-path="url(#p0c951116c6)" style="fill: none; stroke: #777777; stroke-width: 1.5; stroke-linecap: square"/>
   </g>
   <g id="line2d_31">
    <path d="M 115.363636 521.666173 
L 119.590909 468.054956 
L 123.818182 446.28619 
L 128.045455 433.930539 
L 132.272727 424.067036 
L 136.5 416.215267 
L 140.727273 408.468589 
L 144.954545 401.937959 
L 149.181818 395.752627 
L 153.409091 390.738304 
L 157.636364 386.054266 
L 161.863636 381.505344 
L 166.090909 377.226656 
L 170.318182 373.383343 
L 174.545455 370.440806 
L 178.772727 366.807674 
L 183 364.195422 
L 187.227273 361.478079 
L 191.454545 359.466345 
L 195.681818 356.83908 
L 199.909091 353.986621 
L 204.136364 351.509486 
L 208.363636 348.041496 
L 212.590909 345.96971 
L 216.818182 352.335198 
L 221.045455 359.841669 
L 225.272727 364.375577 
L 229.5 367.213023 
L 233.727273 369.750211 
L 237.954545 371.446673 
L 242.181818 373.128123 
L 246.409091 375.274973 
L 250.636364 377.016475 
L 254.863636 378.037355 
L 259.090909 380.049089 
L 263.318182 381.520357 
L 267.545455 383.396975 
L 271.772727 385.438735 
L 276 386.684809 
L 280.227273 388.876699 
L 284.454545 390.888433 
L 288.681818 392.524844 
L 292.909091 394.956941 
L 297.136364 397.088778 
L 301.363636 399.385759 
L 305.590909 401.667726 
L 309.818182 403.018891 
L 314.045455 404.775405 
L 318.272727 406.48688 
L 322.5 407.702929 
L 326.727273 408.813886 
L 330.954545 411.065828 
L 335.181818 412.191798 
L 339.409091 414.608882 
L 343.636364 416.785759 
L 347.863636 418.407156 
L 352.090909 419.848399 
L 356.318182 422.10034 
L 360.545455 424.097061 
L 364.772727 426.394042 
L 369 427.339857 
L 373.227273 428.811125 
L 377.454545 430.957976 
L 381.681818 432.684464 
L 385.909091 434.440979 
L 390.136364 435.762118 
L 394.363636 436.722946 
L 398.590909 438.37437 
L 402.818182 439.815612 
L 407.045455 441.241842 
L 411.272727 443.418718 
L 415.5 444.484637 
L 419.727273 446.03097 
L 423.954545 447.877562 
L 428.181818 449.528986 
L 432.409091 451.210435 
L 436.636364 452.711729 
L 440.863636 453.987829 
L 445.090909 456.855301 
L 449.318182 458.32657 
L 453.545455 460.293265 
L 457.772727 461.269106 
L 462 462.380064 
L 466.227273 464.436837 
L 470.454545 465.667899 
L 474.681818 467.394387 
L 478.909091 469.286018 
L 483.136364 471.132609 
L 487.363636 472.168502 
L 491.590909 473.519667 
L 495.818182 475.111039 
L 500.045455 475.861686 
L 504.272727 476.867553 
L 508.5 478.398874 
L 512.727273 479.599909 
L 516.954545 481.701721 
L 521.181818 482.692575 
L 525.409091 484.749348 
L 529.636364 485.905345 
L 533.863636 486.776095 
L 538.090909 488.352454 
L 542.318182 489.29827 
L 546.545455 490.604396 
L 550.772727 491.760392 
L 555 492.916389 
L 559.227273 493.89223 
L 563.454545 494.973162 
L 567.681818 495.979029 
L 571.909091 497.240116 
L 576.136364 498.726397 
L 580.363636 499.447019 
L 584.590909 499.582135 
L 588.818182 500.212679 
L 593.045455 500.452886 
L 597.272727 501.143481 
L 601.5 501.849089 
L 605.727273 502.134335 
L 609.954545 502.584723 
L 614.181818 503.005086 
L 618.409091 503.620616 
L 622.636364 504.566432 
" clip-path="url(#p0c951116c6)" style="fill: none; stroke: #fbc15e; stroke-width: 1.5; stroke-linecap: square"/>
   </g>
   <g id="patch_3">
    <path d="M 90 640.8 
L 90 86.4 
" style="fill: none; stroke: #ffffff; stroke-linejoin: miter; stroke-linecap: square"/>
   </g>
   <g id="patch_4">
    <path d="M 648 640.8 
L 648 86.4 
" style="fill: none; stroke: #ffffff; stroke-linejoin: miter; stroke-linecap: square"/>
   </g>
   <g id="patch_5">
    <path d="M 90 640.8 
L 648 640.8 
" style="fill: none; stroke: #ffffff; stroke-linejoin: miter; stroke-linecap: square"/>
   </g>
   <g id="patch_6">
    <path d="M 90 86.4 
L 648 86.4 
" style="fill: none; stroke: #ffffff; stroke-linejoin: miter; stroke-linecap: square"/>
   </g>
   <g id="legend_1">
    <g id="patch_7">
     <path d="M 97 167.790625 
L 136.7 167.790625 
Q 138.7 167.790625 138.7 165.790625 
L 138.7 93.4 
Q 138.7 91.4 136.7 91.4 
L 97 91.4 
Q 95 91.4 95 93.4 
L 95 165.790625 
Q 95 167.790625 97 167.790625 
z
" style="fill: #e5e5e5; opacity: 0.8; stroke: #cccccc; stroke-width: 0.5; stroke-linejoin: miter"/>
    </g>
    <g id="line2d_32">
     <path d="M 99 99.498437 
L 109 99.498437 
L 119 99.498437 
" style="fill: none; stroke: #e24a33; stroke-width: 1.5; stroke-linecap: square"/>
    </g>
    <g id="text_15">
     <!-- A -->
     <g transform="translate(127 102.998437)scale(0.1 -0.1)">
      <defs>
       <path id="DejaVuSans-41" d="M 2188 4044 
L 1331 1722 
L 3047 1722 
L 2188 4044 
z
M 1831 4666 
L 2547 4666 
L 4325 0 
L 3669 0 
L 3244 1197 
L 1141 1197 
L 716 0 
L 50 0 
L 1831 4666 
z
" transform="scale(0.015625)"/>
      </defs>
      <use xlink:href="#DejaVuSans-41"/>
     </g>
    </g>
    <g id="line2d_33">
     <path d="M 99 114.176562 
L 109 114.176562 
L 119 114.176562 
" style="fill: none; stroke: #348abd; stroke-width: 1.5; stroke-linecap: square"/>
    </g>
    <g id="text_16">
     <!-- B -->
     <g transform="translate(127 117.676562)scale(0.1 -0.1)">
      <defs>
       <path id="DejaVuSans-42" d="M 1259 2228 
L 1259 519 
L 2272 519 
Q 2781 519 3026 730 
Q 3272 941 3272 1375 
Q 3272 1813 3026 2020 
Q 2781 2228 2272 2228 
L 1259 2228 
z
M 1259 4147 
L 1259 2741 
L 2194 2741 
Q 2656 2741 2882 2914 
Q 3109 3088 3109 3444 
Q 3109 3797 2882 3972 
Q 2656 4147 2194 4147 
L 1259 4147 
z
M 628 4666 
L 2241 4666 
Q 2963 4666 3353 4366 
Q 3744 4066 3744 3513 
Q 3744 3084 3544 2831 
Q 3344 2578 2956 2516 
Q 3422 2416 3680 2098 
Q 3938 1781 3938 1306 
Q 3938 681 3513 340 
Q 3088 0 2303 0 
L 628 0 
L 628 4666 
z
" transform="scale(0.015625)"/>
      </defs>
      <use xlink:href="#DejaVuSans-42"/>
     </g>
    </g>
    <g id="line2d_34">
     <path d="M 99 128.854687 
L 109 128.854687 
L 119 128.854687 
" style="fill: none; stroke: #988ed5; stroke-width: 1.5; stroke-linecap: square"/>
    </g>
    <g id="text_17">
     <!-- C -->
     <g transform="translate(127 132.354687)scale(0.1 -0.1)">
      <defs>
       <path id="DejaVuSans-43" d="M 4122 4306 
L 4122 3641 
Q 3803 3938 3442 4084 
Q 3081 4231 2675 4231 
Q 1875 4231 1450 3742 
Q 1025 3253 1025 2328 
Q 1025 1406 1450 917 
Q 1875 428 2675 428 
Q 3081 428 3442 575 
Q 3803 722 4122 1019 
L 4122 359 
Q 3791 134 3420 21 
Q 3050 -91 2638 -91 
Q 1578 -91 968 557 
Q 359 1206 359 2328 
Q 359 3453 968 4101 
Q 1578 4750 2638 4750 
Q 3056 4750 3426 4639 
Q 3797 4528 4122 4306 
z
" transform="scale(0.015625)"/>
      </defs>
      <use xlink:href="#DejaVuSans-43"/>
     </g>
    </g>
    <g id="line2d_35">
     <path d="M 99 143.532812 
L 109 143.532812 
L 119 143.532812 
" style="fill: none; stroke: #777777; stroke-width: 1.5; stroke-linecap: square"/>
    </g>
    <g id="text_18">
     <!-- D -->
     <g transform="translate(127 147.032812)scale(0.1 -0.1)">
      <defs>
       <path id="DejaVuSans-44" d="M 1259 4147 
L 1259 519 
L 2022 519 
Q 2988 519 3436 956 
Q 3884 1394 3884 2338 
Q 3884 3275 3436 3711 
Q 2988 4147 2022 4147 
L 1259 4147 
z
M 628 4666 
L 1925 4666 
Q 3281 4666 3915 4102 
Q 4550 3538 4550 2338 
Q 4550 1131 3912 565 
Q 3275 0 1925 0 
L 628 0 
L 628 4666 
z
" transform="scale(0.015625)"/>
      </defs>
      <use xlink:href="#DejaVuSans-44"/>
     </g>
    </g>
    <g id="line2d_36">
     <path d="M 99 158.210937 
L 109 158.210937 
L 119 158.210937 
" style="fill: none; stroke: #fbc15e; stroke-width: 1.5; stroke-linecap: square"/>
    </g>
    <g id="text_19">
     <!-- E -->
     <g transform="translate(127 161.710937)scale(0.1 -0.1)">
      <defs>
       <path id="DejaVuSans-45" d="M 628 4666 
L 3578 4666 
L 3578 4134 
L 1259 4134 
L 1259 2753 
L 3481 2753 
L 3481 2222 
L 1259 2222 
L 1259 531 
L 3634 531 
L 3634 0 
L 628 0 
L 628 4666 
z
" transform="scale(0.015625)"/>
      </defs>
      <use xlink:href="#DejaVuSans-45"/>
     </g>
    </g>
   </g>
  </g>
 </g>
 <defs>
  <clipPath id="p0c951116c6">
   <rect x="90" y="86.4" width="558" height="554.4"/>
  </clipPath>
 </defs>
</svg>
