<?xml version="1.0" encoding="utf-8" standalone="no"?>
<!DOCTYPE svg PUBLIC "-//W3C//DTD SVG 1.1//EN"
  "http://www.w3.org/Graphics/SVG/1.1/DTD/svg11.dtd">
<svg xmlns:xlink="http://www.w3.org/1999/xlink" width="720pt" height="720pt" viewBox="0 0 720 720" xmlns="http://www.w3.org/2000/svg" version="1.1">
 <metadata>
  <rdf:RDF xmlns:dc="http://purl.org/dc/elements/1.1/" xmlns:cc="http://creativecommons.org/ns#" xmlns:rdf="http://www.w3.org/1999/02/22-rdf-syntax-ns#">
   <cc:Work>
    <dc:type rdf:resource="http://purl.org/dc/dcmitype/StillImage"/>
    <dc:date>2022-12-03T17:40:19.344327</dc:date>
    <dc:format>image/svg+xml</dc:format>
    <dc:creator>
     <cc:Agent>
      <dc:title>Matplotlib v3.5.3, https://matplotlib.org/</dc:title>
     </cc:Agent>
    </dc:creator>
   </cc:Work>
  </rdf:RDF>
 </metadata>
 <defs>
  <style type="text/css">*{stroke-linejoin: round; stroke-linecap: butt}</style>
 </defs>
 <g id="figure_1">
  <g id="patch_1">
   <path d="M 0 720 
L 720 720 
L 720 0 
L 0 0 
z
" style="fill: #ffffff"/>
  </g>
  <g id="axes_1">
   <g id="patch_2">
    <path d="M 90 640.8 
L 648 640.8 
L 648 86.4 
L 90 86.4 
z
" style="fill: #e5e5e5"/>
   </g>
   <g id="matplotlib.axis_1">
    <g id="xtick_1">
     <g id="line2d_1">
      <path d="M 115.363636 640.8 
L 115.363636 86.4 
" clip-path="url(#p1b527f8e25)" style="fill: none; stroke: #ffffff; stroke-width: 0.8; stroke-linecap: square"/>
     </g>
     <g id="line2d_2">
      <defs>
       <path id="m51dc316681" d="M 0 0 
L 0 3.5 
" style="stroke: #555555; stroke-width: 0.8"/>
      </defs>
      <g>
       <use xlink:href="#m51dc316681" x="115.363636" y="640.8" style="fill: #555555; stroke: #555555; stroke-width: 0.8"/>
      </g>
     </g>
     <g id="text_1">
      <!-- 0 -->
      <g style="fill: #555555" transform="translate(112.182386 655.398438)scale(0.1 -0.1)">
       <defs>
        <path id="DejaVuSans-30" d="M 2034 4250 
Q 1547 4250 1301 3770 
Q 1056 3291 1056 2328 
Q 1056 1369 1301 889 
Q 1547 409 2034 409 
Q 2525 409 2770 889 
Q 3016 1369 3016 2328 
Q 3016 3291 2770 3770 
Q 2525 4250 2034 4250 
z
M 2034 4750 
Q 2819 4750 3233 4129 
Q 3647 3509 3647 2328 
Q 3647 1150 3233 529 
Q 2819 -91 2034 -91 
Q 1250 -91 836 529 
Q 422 1150 422 2328 
Q 422 3509 836 4129 
Q 1250 4750 2034 4750 
z
" transform="scale(0.015625)"/>
       </defs>
       <use xlink:href="#DejaVuSans-30"/>
      </g>
     </g>
    </g>
    <g id="xtick_2">
     <g id="line2d_3">
      <path d="M 199.909091 640.8 
L 199.909091 86.4 
" clip-path="url(#p1b527f8e25)" style="fill: none; stroke: #ffffff; stroke-width: 0.8; stroke-linecap: square"/>
     </g>
     <g id="line2d_4">
      <g>
       <use xlink:href="#m51dc316681" x="199.909091" y="640.8" style="fill: #555555; stroke: #555555; stroke-width: 0.8"/>
      </g>
     </g>
     <g id="text_2">
      <!-- 20 -->
      <g style="fill: #555555" transform="translate(193.546591 655.398438)scale(0.1 -0.1)">
       <defs>
        <path id="DejaVuSans-32" d="M 1228 531 
L 3431 531 
L 3431 0 
L 469 0 
L 469 531 
Q 828 903 1448 1529 
Q 2069 2156 2228 2338 
Q 2531 2678 2651 2914 
Q 2772 3150 2772 3378 
Q 2772 3750 2511 3984 
Q 2250 4219 1831 4219 
Q 1534 4219 1204 4116 
Q 875 4013 500 3803 
L 500 4441 
Q 881 4594 1212 4672 
Q 1544 4750 1819 4750 
Q 2544 4750 2975 4387 
Q 3406 4025 3406 3419 
Q 3406 3131 3298 2873 
Q 3191 2616 2906 2266 
Q 2828 2175 2409 1742 
Q 1991 1309 1228 531 
z
" transform="scale(0.015625)"/>
       </defs>
       <use xlink:href="#DejaVuSans-32"/>
       <use xlink:href="#DejaVuSans-30" x="63.623047"/>
      </g>
     </g>
    </g>
    <g id="xtick_3">
     <g id="line2d_5">
      <path d="M 284.454545 640.8 
L 284.454545 86.4 
" clip-path="url(#p1b527f8e25)" style="fill: none; stroke: #ffffff; stroke-width: 0.8; stroke-linecap: square"/>
     </g>
     <g id="line2d_6">
      <g>
       <use xlink:href="#m51dc316681" x="284.454545" y="640.8" style="fill: #555555; stroke: #555555; stroke-width: 0.8"/>
      </g>
     </g>
     <g id="text_3">
      <!-- 40 -->
      <g style="fill: #555555" transform="translate(278.092045 655.398438)scale(0.1 -0.1)">
       <defs>
        <path id="DejaVuSans-34" d="M 2419 4116 
L 825 1625 
L 2419 1625 
L 2419 4116 
z
M 2253 4666 
L 3047 4666 
L 3047 1625 
L 3713 1625 
L 3713 1100 
L 3047 1100 
L 3047 0 
L 2419 0 
L 2419 1100 
L 313 1100 
L 313 1709 
L 2253 4666 
z
" transform="scale(0.015625)"/>
       </defs>
       <use xlink:href="#DejaVuSans-34"/>
       <use xlink:href="#DejaVuSans-30" x="63.623047"/>
      </g>
     </g>
    </g>
    <g id="xtick_4">
     <g id="line2d_7">
      <path d="M 369 640.8 
L 369 86.4 
" clip-path="url(#p1b527f8e25)" style="fill: none; stroke: #ffffff; stroke-width: 0.8; stroke-linecap: square"/>
     </g>
     <g id="line2d_8">
      <g>
       <use xlink:href="#m51dc316681" x="369" y="640.8" style="fill: #555555; stroke: #555555; stroke-width: 0.8"/>
      </g>
     </g>
     <g id="text_4">
      <!-- 60 -->
      <g style="fill: #555555" transform="translate(362.6375 655.398438)scale(0.1 -0.1)">
       <defs>
        <path id="DejaVuSans-36" d="M 2113 2584 
Q 1688 2584 1439 2293 
Q 1191 2003 1191 1497 
Q 1191 994 1439 701 
Q 1688 409 2113 409 
Q 2538 409 2786 701 
Q 3034 994 3034 1497 
Q 3034 2003 2786 2293 
Q 2538 2584 2113 2584 
z
M 3366 4563 
L 3366 3988 
Q 3128 4100 2886 4159 
Q 2644 4219 2406 4219 
Q 1781 4219 1451 3797 
Q 1122 3375 1075 2522 
Q 1259 2794 1537 2939 
Q 1816 3084 2150 3084 
Q 2853 3084 3261 2657 
Q 3669 2231 3669 1497 
Q 3669 778 3244 343 
Q 2819 -91 2113 -91 
Q 1303 -91 875 529 
Q 447 1150 447 2328 
Q 447 3434 972 4092 
Q 1497 4750 2381 4750 
Q 2619 4750 2861 4703 
Q 3103 4656 3366 4563 
z
" transform="scale(0.015625)"/>
       </defs>
       <use xlink:href="#DejaVuSans-36"/>
       <use xlink:href="#DejaVuSans-30" x="63.623047"/>
      </g>
     </g>
    </g>
    <g id="xtick_5">
     <g id="line2d_9">
      <path d="M 453.545455 640.8 
L 453.545455 86.4 
" clip-path="url(#p1b527f8e25)" style="fill: none; stroke: #ffffff; stroke-width: 0.8; stroke-linecap: square"/>
     </g>
     <g id="line2d_10">
      <g>
       <use xlink:href="#m51dc316681" x="453.545455" y="640.8" style="fill: #555555; stroke: #555555; stroke-width: 0.8"/>
      </g>
     </g>
     <g id="text_5">
      <!-- 80 -->
      <g style="fill: #555555" transform="translate(447.182955 655.398438)scale(0.1 -0.1)">
       <defs>
        <path id="DejaVuSans-38" d="M 2034 2216 
Q 1584 2216 1326 1975 
Q 1069 1734 1069 1313 
Q 1069 891 1326 650 
Q 1584 409 2034 409 
Q 2484 409 2743 651 
Q 3003 894 3003 1313 
Q 3003 1734 2745 1975 
Q 2488 2216 2034 2216 
z
M 1403 2484 
Q 997 2584 770 2862 
Q 544 3141 544 3541 
Q 544 4100 942 4425 
Q 1341 4750 2034 4750 
Q 2731 4750 3128 4425 
Q 3525 4100 3525 3541 
Q 3525 3141 3298 2862 
Q 3072 2584 2669 2484 
Q 3125 2378 3379 2068 
Q 3634 1759 3634 1313 
Q 3634 634 3220 271 
Q 2806 -91 2034 -91 
Q 1263 -91 848 271 
Q 434 634 434 1313 
Q 434 1759 690 2068 
Q 947 2378 1403 2484 
z
M 1172 3481 
Q 1172 3119 1398 2916 
Q 1625 2713 2034 2713 
Q 2441 2713 2670 2916 
Q 2900 3119 2900 3481 
Q 2900 3844 2670 4047 
Q 2441 4250 2034 4250 
Q 1625 4250 1398 4047 
Q 1172 3844 1172 3481 
z
" transform="scale(0.015625)"/>
       </defs>
       <use xlink:href="#DejaVuSans-38"/>
       <use xlink:href="#DejaVuSans-30" x="63.623047"/>
      </g>
     </g>
    </g>
    <g id="xtick_6">
     <g id="line2d_11">
      <path d="M 538.090909 640.8 
L 538.090909 86.4 
" clip-path="url(#p1b527f8e25)" style="fill: none; stroke: #ffffff; stroke-width: 0.8; stroke-linecap: square"/>
     </g>
     <g id="line2d_12">
      <g>
       <use xlink:href="#m51dc316681" x="538.090909" y="640.8" style="fill: #555555; stroke: #555555; stroke-width: 0.8"/>
      </g>
     </g>
     <g id="text_6">
      <!-- 100 -->
      <g style="fill: #555555" transform="translate(528.547159 655.398438)scale(0.1 -0.1)">
       <defs>
        <path id="DejaVuSans-31" d="M 794 531 
L 1825 531 
L 1825 4091 
L 703 3866 
L 703 4441 
L 1819 4666 
L 2450 4666 
L 2450 531 
L 3481 531 
L 3481 0 
L 794 0 
L 794 531 
z
" transform="scale(0.015625)"/>
       </defs>
       <use xlink:href="#DejaVuSans-31"/>
       <use xlink:href="#DejaVuSans-30" x="63.623047"/>
       <use xlink:href="#DejaVuSans-30" x="127.246094"/>
      </g>
     </g>
    </g>
    <g id="xtick_7">
     <g id="line2d_13">
      <path d="M 622.636364 640.8 
L 622.636364 86.4 
" clip-path="url(#p1b527f8e25)" style="fill: none; stroke: #ffffff; stroke-width: 0.8; stroke-linecap: square"/>
     </g>
     <g id="line2d_14">
      <g>
       <use xlink:href="#m51dc316681" x="622.636364" y="640.8" style="fill: #555555; stroke: #555555; stroke-width: 0.8"/>
      </g>
     </g>
     <g id="text_7">
      <!-- 120 -->
      <g style="fill: #555555" transform="translate(613.092614 655.398438)scale(0.1 -0.1)">
       <use xlink:href="#DejaVuSans-31"/>
       <use xlink:href="#DejaVuSans-32" x="63.623047"/>
       <use xlink:href="#DejaVuSans-30" x="127.246094"/>
      </g>
     </g>
    </g>
    <g id="text_8">
     <!-- hr -->
     <g style="fill: #555555" transform="translate(362.730937 670.59625)scale(0.12 -0.12)">
      <defs>
       <path id="DejaVuSans-68" d="M 3513 2113 
L 3513 0 
L 2938 0 
L 2938 2094 
Q 2938 2591 2744 2837 
Q 2550 3084 2163 3084 
Q 1697 3084 1428 2787 
Q 1159 2491 1159 1978 
L 1159 0 
L 581 0 
L 581 4863 
L 1159 4863 
L 1159 2956 
Q 1366 3272 1645 3428 
Q 1925 3584 2291 3584 
Q 2894 3584 3203 3211 
Q 3513 2838 3513 2113 
z
" transform="scale(0.015625)"/>
       <path id="DejaVuSans-72" d="M 2631 2963 
Q 2534 3019 2420 3045 
Q 2306 3072 2169 3072 
Q 1681 3072 1420 2755 
Q 1159 2438 1159 1844 
L 1159 0 
L 581 0 
L 581 3500 
L 1159 3500 
L 1159 2956 
Q 1341 3275 1631 3429 
Q 1922 3584 2338 3584 
Q 2397 3584 2469 3576 
Q 2541 3569 2628 3553 
L 2631 2963 
z
" transform="scale(0.015625)"/>
      </defs>
      <use xlink:href="#DejaVuSans-68"/>
      <use xlink:href="#DejaVuSans-72" x="63.378906"/>
     </g>
    </g>
   </g>
   <g id="matplotlib.axis_2">
    <g id="ytick_1">
     <g id="line2d_15">
      <path d="M 90 634.763866 
L 648 634.763866 
" clip-path="url(#p1b527f8e25)" style="fill: none; stroke: #ffffff; stroke-width: 0.8; stroke-linecap: square"/>
     </g>
     <g id="line2d_16">
      <defs>
       <path id="m1b1afd287d" d="M 0 0 
L -3.5 0 
" style="stroke: #555555; stroke-width: 0.8"/>
      </defs>
      <g>
       <use xlink:href="#m1b1afd287d" x="90" y="634.763866" style="fill: #555555; stroke: #555555; stroke-width: 0.8"/>
      </g>
     </g>
     <g id="text_9">
      <!-- 0 -->
      <g style="fill: #555555" transform="translate(76.6375 638.563084)scale(0.1 -0.1)">
       <use xlink:href="#DejaVuSans-30"/>
      </g>
     </g>
    </g>
    <g id="ytick_2">
     <g id="line2d_17">
      <path d="M 90 547.933218 
L 648 547.933218 
" clip-path="url(#p1b527f8e25)" style="fill: none; stroke: #ffffff; stroke-width: 0.8; stroke-linecap: square"/>
     </g>
     <g id="line2d_18">
      <g>
       <use xlink:href="#m1b1afd287d" x="90" y="547.933218" style="fill: #555555; stroke: #555555; stroke-width: 0.8"/>
      </g>
     </g>
     <g id="text_10">
      <!-- 2 -->
      <g style="fill: #555555" transform="translate(76.6375 551.732436)scale(0.1 -0.1)">
       <use xlink:href="#DejaVuSans-32"/>
      </g>
     </g>
    </g>
    <g id="ytick_3">
     <g id="line2d_19">
      <path d="M 90 461.10257 
L 648 461.10257 
" clip-path="url(#p1b527f8e25)" style="fill: none; stroke: #ffffff; stroke-width: 0.8; stroke-linecap: square"/>
     </g>
     <g id="line2d_20">
      <g>
       <use xlink:href="#m1b1afd287d" x="90" y="461.10257" style="fill: #555555; stroke: #555555; stroke-width: 0.8"/>
      </g>
     </g>
     <g id="text_11">
      <!-- 4 -->
      <g style="fill: #555555" transform="translate(76.6375 464.901788)scale(0.1 -0.1)">
       <use xlink:href="#DejaVuSans-34"/>
      </g>
     </g>
    </g>
    <g id="ytick_4">
     <g id="line2d_21">
      <path d="M 90 374.271921 
L 648 374.271921 
" clip-path="url(#p1b527f8e25)" style="fill: none; stroke: #ffffff; stroke-width: 0.8; stroke-linecap: square"/>
     </g>
     <g id="line2d_22">
      <g>
       <use xlink:href="#m1b1afd287d" x="90" y="374.271921" style="fill: #555555; stroke: #555555; stroke-width: 0.8"/>
      </g>
     </g>
     <g id="text_12">
      <!-- 6 -->
      <g style="fill: #555555" transform="translate(76.6375 378.07114)scale(0.1 -0.1)">
       <use xlink:href="#DejaVuSans-36"/>
      </g>
     </g>
    </g>
    <g id="ytick_5">
     <g id="line2d_23">
      <path d="M 90 287.441273 
L 648 287.441273 
" clip-path="url(#p1b527f8e25)" style="fill: none; stroke: #ffffff; stroke-width: 0.8; stroke-linecap: square"/>
     </g>
     <g id="line2d_24">
      <g>
       <use xlink:href="#m1b1afd287d" x="90" y="287.441273" style="fill: #555555; stroke: #555555; stroke-width: 0.8"/>
      </g>
     </g>
     <g id="text_13">
      <!-- 8 -->
      <g style="fill: #555555" transform="translate(76.6375 291.240492)scale(0.1 -0.1)">
       <use xlink:href="#DejaVuSans-38"/>
      </g>
     </g>
    </g>
    <g id="ytick_6">
     <g id="line2d_25">
      <path d="M 90 200.610625 
L 648 200.610625 
" clip-path="url(#p1b527f8e25)" style="fill: none; stroke: #ffffff; stroke-width: 0.8; stroke-linecap: square"/>
     </g>
     <g id="line2d_26">
      <g>
       <use xlink:href="#m1b1afd287d" x="90" y="200.610625" style="fill: #555555; stroke: #555555; stroke-width: 0.8"/>
      </g>
     </g>
     <g id="text_14">
      <!-- 10 -->
      <g style="fill: #555555" transform="translate(70.275 204.409844)scale(0.1 -0.1)">
       <use xlink:href="#DejaVuSans-31"/>
       <use xlink:href="#DejaVuSans-30" x="63.623047"/>
      </g>
     </g>
    </g>
    <g id="ytick_7">
     <g id="line2d_27">
      <path d="M 90 113.779977 
L 648 113.779977 
" clip-path="url(#p1b527f8e25)" style="fill: none; stroke: #ffffff; stroke-width: 0.8; stroke-linecap: square"/>
     </g>
     <g id="line2d_28">
      <g>
       <use xlink:href="#m1b1afd287d" x="90" y="113.779977" style="fill: #555555; stroke: #555555; stroke-width: 0.8"/>
      </g>
     </g>
     <g id="text_15">
      <!-- 12 -->
      <g style="fill: #555555" transform="translate(70.275 117.579196)scale(0.1 -0.1)">
       <use xlink:href="#DejaVuSans-31"/>
       <use xlink:href="#DejaVuSans-32" x="63.623047"/>
      </g>
     </g>
    </g>
   </g>
   <g id="line2d_29">
    <path d="M 115.363636 615.6 
L 119.590909 603.698988 
L 123.818182 595.950746 
L 128.045455 590.683379 
L 132.272727 585.757583 
L 136.5 582.593567 
L 140.727273 579.249778 
L 144.954545 576.643061 
L 149.181818 573.910503 
L 153.409091 571.357717 
L 157.636364 569.649868 
L 161.863636 567.959996 
L 166.090909 565.766759 
L 170.318182 564.148796 
L 174.545455 563.0342 
L 178.772727 561.110622 
L 183 559.76232 
L 187.227273 558.521883 
L 191.454545 557.353354 
L 195.681818 556.202803 
L 199.909091 554.944388 
L 204.136364 553.739905 
L 208.363636 552.463512 
L 212.590909 551.654531 
L 216.818182 551.79835 
L 221.045455 553.614063 
L 225.272727 554.99832 
L 229.5 555.987075 
L 233.727273 556.598305 
L 237.954545 556.508418 
L 242.181818 556.598305 
L 246.409091 556.957852 
L 250.636364 557.443241 
L 254.863636 558.324132 
L 259.090909 558.737611 
L 263.318182 559.007271 
L 267.545455 559.528615 
L 271.772727 559.546592 
L 276 559.83423 
L 280.227273 560.193777 
L 284.454545 560.876917 
L 288.681818 561.254441 
L 292.909091 561.05669 
L 297.136364 561.002758 
L 301.363636 560.894894 
L 305.590909 561.344328 
L 309.818182 561.488147 
L 314.045455 561.829717 
L 318.272727 562.225219 
L 322.5 562.42297 
L 326.727273 562.818472 
L 330.954545 563.537566 
L 335.181818 563.537566 
L 339.409091 564.094864 
L 343.636364 564.382502 
L 347.863636 564.67014 
L 352.090909 564.760026 
L 356.318182 565.029687 
L 360.545455 565.389234 
L 364.772727 565.335302 
L 369 565.155528 
L 373.227273 565.640917 
L 377.454545 565.712826 
L 381.681818 565.784736 
L 385.909091 566.23417 
L 390.136364 566.773491 
L 394.363636 567.726291 
L 398.590909 568.463362 
L 402.818182 568.966729 
L 407.045455 569.398185 
L 411.272727 569.77571 
L 415.5 569.919529 
L 419.727273 569.865597 
L 423.954545 570.207166 
L 428.181818 570.38694 
L 432.409091 570.854351 
L 436.636364 571.195921 
L 440.863636 571.771197 
L 445.090909 572.274563 
L 449.318182 572.616133 
L 453.545455 572.777929 
L 457.772727 573.353204 
L 462 573.694774 
L 466.227273 573.640842 
L 470.454545 573.946457 
L 474.681818 574.126231 
L 478.909091 574.61162 
L 483.136364 575.15094 
L 487.363636 575.510488 
L 491.590909 576.157673 
L 495.818182 576.283514 
L 500.045455 575.995876 
L 504.272727 575.995876 
L 508.5 576.10374 
L 512.727273 576.085763 
L 516.954545 576.51722 
L 521.181818 577.110473 
L 525.409091 577.146427 
L 529.636364 577.218337 
L 533.863636 577.505974 
L 538.090909 577.667771 
L 542.318182 578.135182 
L 546.545455 578.476752 
L 550.772727 578.602593 
L 555 579.195846 
L 559.227273 579.483484 
L 563.454545 579.681235 
L 567.681818 579.98685 
L 571.909091 580.076737 
L 576.136364 579.98685 
L 580.363636 579.950895 
L 584.590909 580.202578 
L 588.818182 580.454262 
L 593.045455 580.508194 
L 597.272727 580.490216 
L 601.5 580.867741 
L 605.727273 580.687967 
L 609.954545 580.687967 
L 614.181818 580.454262 
L 618.409091 579.878986 
L 622.636364 579.357643 
" clip-path="url(#p1b527f8e25)" style="fill: none; stroke: #e24a33; stroke-width: 1.5; stroke-linecap: square"/>
   </g>
   <g id="line2d_30">
    <path d="M 115.363636 415.537972 
L 119.590909 344.949691 
L 123.818182 320.908532 
L 128.045455 305.003908 
L 132.272727 289.713363 
L 136.5 278.598548 
L 140.727273 268.988226 
L 144.954545 258.487489 
L 149.181818 249.521949 
L 153.409091 240.464296 
L 157.636364 233.862956 
L 161.863636 228.459069 
L 166.090909 222.625326 
L 170.318182 217.067919 
L 174.545455 211.602624 
L 178.772727 206.168033 
L 183 202.023005 
L 187.227273 197.417419 
L 191.454545 192.934649 
L 195.681818 188.912437 
L 199.909091 184.828817 
L 204.136364 181.635611 
L 208.363636 170.244462 
L 212.590909 164.134384 
L 216.818182 165.423948 
L 221.045455 167.726741 
L 225.272727 165.485356 
L 229.5 162.353558 
L 233.727273 159.835837 
L 237.954545 158.20853 
L 242.181818 158.300642 
L 246.409091 157.686564 
L 250.636364 156.059257 
L 254.863636 157.041782 
L 259.090909 155.046028 
L 263.318182 152.712531 
L 267.545455 153.111682 
L 271.772727 152.344084 
L 276 150.993112 
L 280.227273 149.488621 
L 284.454545 148.014833 
L 288.681818 148.168353 
L 292.909091 149.181582 
L 297.136364 146.9709 
L 301.363636 145.86556 
L 305.590909 145.497113 
L 309.818182 143.010097 
L 314.045455 142.48813 
L 318.272727 142.549538 
L 322.5 141.628421 
L 326.727273 140.738007 
L 330.954545 141.321382 
L 335.181818 139.1107 
L 339.409091 138.281695 
L 343.636364 136.777203 
L 347.863636 137.421986 
L 352.090909 136.531572 
L 356.318182 135.518343 
L 360.545455 135.549047 
L 364.772727 133.983148 
L 369 132.294433 
L 373.227273 131.95669 
L 377.454545 130.69783 
L 381.681818 129.009115 
L 385.909091 126.982657 
L 390.136364 125.50887 
L 394.363636 125.386054 
L 398.590909 124.25001 
L 402.818182 124.372825 
L 407.045455 124.771976 
L 411.272727 124.587753 
L 415.5 125.324646 
L 419.727273 124.495641 
L 423.954545 124.464937 
L 428.181818 124.894792 
L 432.409091 125.140423 
L 436.636364 124.342121 
L 440.863636 123.113965 
L 445.090909 121.701585 
L 449.318182 123.973674 
L 453.545455 123.421004 
L 457.772727 124.372825 
L 462 122.960445 
L 466.227273 121.455954 
L 470.454545 120.197094 
L 474.681818 120.442725 
L 478.909091 119.767239 
L 483.136364 119.429496 
L 487.363636 119.797943 
L 491.590909 118.815418 
L 495.818182 118.477675 
L 500.045455 118.324156 
L 504.272727 119.122457 
L 508.5 117.49515 
L 512.727273 117.49515 
L 516.954545 116.850368 
L 521.181818 116.23629 
L 525.409091 114.394056 
L 529.636364 114.025609 
L 533.863636 113.442234 
L 538.090909 112.275486 
L 542.318182 112.459709 
L 546.545455 113.043084 
L 550.772727 113.01238 
L 555 113.657162 
L 559.227273 112.091263 
L 563.454545 111.6 
L 567.681818 112.429005 
L 571.909091 112.398302 
L 576.136364 112.766748 
L 580.363636 112.429005 
L 584.590909 113.749273 
L 588.818182 114.332648 
L 593.045455 114.701095 
L 597.272727 115.100245 
L 601.5 115.5301 
L 605.727273 115.990659 
L 609.954545 116.574033 
L 614.181818 117.556558 
L 618.409091 118.262748 
L 622.636364 118.723306 
" clip-path="url(#p1b527f8e25)" style="fill: none; stroke: #348abd; stroke-width: 1.5; stroke-linecap: square"/>
   </g>
   <g id="line2d_31">
    <path d="M 115.363636 556.62657 
L 119.590909 522.033199 
L 123.818182 505.289493 
L 128.045455 493.612623 
L 132.272727 484.12195 
L 136.5 476.920356 
L 140.727273 470.876161 
L 144.954545 465.346366 
L 149.181818 459.790851 
L 153.409091 455.032655 
L 157.636364 450.505938 
L 161.863636 446.365022 
L 166.090909 442.738505 
L 170.318182 439.857867 
L 174.545455 436.51427 
L 178.772727 433.607912 
L 183 429.775635 
L 187.227273 427.640877 
L 191.454545 425.223199 
L 195.681818 422.522601 
L 199.909091 420.465003 
L 204.136364 418.561725 
L 208.363636 414.703728 
L 212.590909 412.00313 
L 216.818182 413.392009 
L 221.045455 415.886847 
L 225.272727 418.021605 
L 229.5 417.790125 
L 233.727273 418.355965 
L 237.954545 418.073045 
L 242.181818 418.098765 
L 246.409091 418.073045 
L 250.636364 417.893005 
L 254.863636 417.687246 
L 259.090909 417.661526 
L 263.318182 416.838486 
L 267.545455 415.809687 
L 271.772727 415.038088 
L 276 414.472248 
L 280.227273 413.957849 
L 284.454545 414.163608 
L 288.681818 413.700649 
L 292.909091 413.829249 
L 297.136364 413.057649 
L 301.363636 412.64613 
L 305.590909 411.180091 
L 309.818182 410.820011 
L 314.045455 409.971252 
L 318.272727 409.816932 
L 322.5 410.074132 
L 326.727273 408.993893 
L 330.954545 408.891013 
L 335.181818 407.347814 
L 339.409091 407.553574 
L 343.636364 407.836494 
L 347.863636 407.116334 
L 352.090909 405.933215 
L 356.318182 405.470256 
L 360.545455 405.444536 
L 364.772727 405.521696 
L 369 405.444536 
L 373.227273 405.084456 
L 377.454545 404.724376 
L 381.681818 404.570056 
L 385.909091 404.467176 
L 390.136364 404.004217 
L 394.363636 403.927057 
L 398.590909 403.772737 
L 402.818182 402.538178 
L 407.045455 401.689419 
L 411.272727 400.814939 
L 415.5 400.22338 
L 419.727273 400.09478 
L 423.954545 399.6061 
L 428.181818 399.6061 
L 432.409091 399.091701 
L 436.636364 398.294382 
L 440.863636 397.471342 
L 445.090909 397.008383 
L 449.318182 395.902424 
L 453.545455 395.490904 
L 457.772727 393.947705 
L 462 393.484746 
L 466.227273 393.201826 
L 470.454545 392.918906 
L 474.681818 392.250187 
L 478.909091 392.841746 
L 483.136364 393.098946 
L 487.363636 391.581467 
L 491.590909 391.632907 
L 495.818182 389.909669 
L 500.045455 389.189509 
L 504.272727 388.10927 
L 508.5 387.95495 
L 512.727273 386.746111 
L 516.954545 386.180272 
L 521.181818 385.305792 
L 525.409091 384.508473 
L 529.636364 384.148393 
L 533.863636 383.351074 
L 538.090909 383.222474 
L 542.318182 382.373715 
L 546.545455 381.344916 
L 550.772727 380.933396 
L 555 380.393276 
L 559.227273 380.110357 
L 563.454545 378.078478 
L 567.681818 376.921079 
L 571.909091 376.998239 
L 576.136364 376.4324 
L 580.363636 375.50648 
L 584.590909 374.837761 
L 588.818182 375.069241 
L 593.045455 374.477681 
L 597.272727 374.683441 
L 601.5 374.734881 
L 605.727273 374.426241 
L 609.954545 374.451961 
L 614.181818 375.146401 
L 618.409091 376.4324 
L 622.636364 377.692679 
" clip-path="url(#p1b527f8e25)" style="fill: none; stroke: #988ed5; stroke-width: 1.5; stroke-linecap: square"/>
   </g>
   <g id="line2d_32">
    <path d="M 115.363636 504.750199 
L 119.590909 443.034361 
L 123.818182 419.494066 
L 128.045455 406.84632 
L 132.272727 394.766432 
L 136.5 385.835575 
L 140.727273 376.775659 
L 144.954545 369.212823 
L 149.181818 362.424339 
L 153.409091 356.745759 
L 157.636364 350.938121 
L 161.863636 346.369445 
L 166.090909 341.232912 
L 170.318182 336.535177 
L 174.545455 332.585983 
L 178.772727 327.501073 
L 183 324.584348 
L 187.227273 321.538564 
L 191.454545 318.699274 
L 195.681818 315.524432 
L 199.909091 311.884978 
L 204.136364 308.658513 
L 208.363636 303.98659 
L 212.590909 301.044053 
L 216.818182 306.851692 
L 221.045455 314.75008 
L 225.272727 319.912425 
L 229.5 322.312916 
L 233.727273 325.048959 
L 237.954545 326.26211 
L 242.181818 327.810814 
L 246.409091 329.566011 
L 250.636364 331.760008 
L 254.863636 331.760008 
L 259.090909 333.670076 
L 263.318182 335.115532 
L 267.545455 337.903199 
L 271.772727 340.690865 
L 276 342.265381 
L 280.227273 344.536813 
L 284.454545 347.169609 
L 288.681818 349.544287 
L 292.909091 351.893155 
L 297.136364 354.474327 
L 301.363636 357.107123 
L 305.590909 360.230342 
L 309.818182 361.727422 
L 314.045455 364.179536 
L 318.272727 366.605839 
L 322.5 367.638308 
L 326.727273 368.257789 
L 330.954545 371.148703 
L 335.181818 373.755687 
L 339.409091 376.698224 
L 343.636364 379.279396 
L 347.863636 380.957159 
L 352.090909 382.609109 
L 356.318182 384.957976 
L 360.545455 387.642396 
L 364.772727 390.301004 
L 369 391.59159 
L 373.227273 393.191917 
L 377.454545 395.256855 
L 381.681818 397.760593 
L 385.909091 399.902966 
L 390.136364 401.632352 
L 394.363636 402.561574 
L 398.590909 404.987876 
L 402.818182 406.69145 
L 407.045455 408.988694 
L 411.272727 411.905419 
L 415.5 414.228474 
L 419.727273 416.474094 
L 423.954545 418.95202 
L 428.181818 420.681406 
L 432.409091 422.38498 
L 436.636364 424.604788 
L 440.863636 426.12768 
L 445.090909 429.612263 
L 449.318182 431.599766 
L 453.545455 434.877855 
L 457.772727 437.226722 
L 462 438.98192 
L 466.227273 441.279164 
L 470.454545 442.389068 
L 474.681818 445.512287 
L 478.909091 448.067648 
L 483.136364 449.771222 
L 487.363636 451.139243 
L 491.590909 452.713758 
L 495.818182 455.57886 
L 500.045455 456.895258 
L 504.272727 458.624644 
L 508.5 460.5089 
L 512.727273 462.418968 
L 516.954545 464.871082 
L 521.181818 466.239103 
L 525.409091 469.155828 
L 529.636364 470.885214 
L 533.863636 472.485541 
L 538.090909 474.782785 
L 542.318182 476.124994 
L 546.545455 478.912661 
L 550.772727 480.977599 
L 555 482.836043 
L 559.227273 483.945947 
L 563.454545 485.468839 
L 567.681818 487.301472 
L 571.909091 488.927611 
L 576.136364 491.069984 
L 580.363636 493.10911 
L 584.590909 493.393039 
L 588.818182 494.45132 
L 593.045455 495.587036 
L 597.272727 496.619505 
L 601.5 498.013338 
L 605.727273 499.200678 
L 609.954545 500.568699 
L 614.181818 501.03331 
L 618.409091 501.833474 
L 622.636364 502.530391 
" clip-path="url(#p1b527f8e25)" style="fill: none; stroke: #777777; stroke-width: 1.5; stroke-linecap: square"/>
   </g>
   <g id="line2d_33">
    <path d="M 115.363636 455.559682 
L 119.590909 384.144447 
L 123.818182 359.855655 
L 128.045455 344.012035 
L 132.272727 331.37996 
L 136.5 320.508287 
L 140.727273 310.873654 
L 144.954545 301.048707 
L 149.181818 293.03174 
L 153.409091 286.132866 
L 157.636364 280.85166 
L 161.863636 274.690252 
L 166.090909 267.838957 
L 170.318182 263.17627 
L 174.545455 259.631677 
L 178.772727 255.183093 
L 183 252.352176 
L 187.227273 248.379376 
L 191.454545 245.2392 
L 195.681818 241.076086 
L 199.909091 237.483914 
L 204.136364 234.652997 
L 208.363636 227.302129 
L 212.590909 223.6148 
L 216.818182 228.515379 
L 221.045455 234.058267 
L 225.272727 235.509409 
L 229.5 236.127929 
L 233.727273 236.984341 
L 237.954545 238.245169 
L 242.181818 239.054003 
L 246.409091 240.624091 
L 250.636364 241.88492 
L 254.863636 242.408283 
L 259.090909 244.144896 
L 263.318182 244.739626 
L 267.545455 246.595185 
L 271.772727 245.786352 
L 276 245.810141 
L 280.227273 246.048033 
L 284.454545 245.976665 
L 288.681818 247.879803 
L 292.909091 247.332651 
L 297.136364 248.426955 
L 301.363636 249.854308 
L 305.590909 249.759151 
L 309.818182 250.782088 
L 314.045455 251.186504 
L 318.272727 252.114284 
L 322.5 253.613005 
L 326.727273 255.087936 
L 330.954545 255.468564 
L 335.181818 256.134662 
L 339.409091 257.347912 
L 343.636364 259.22726 
L 347.863636 260.702192 
L 352.090909 261.701339 
L 356.318182 263.366584 
L 360.545455 264.10405 
L 364.772727 264.746359 
L 369 265.697928 
L 373.227273 268.552634 
L 377.454545 269.409046 
L 381.681818 269.979987 
L 385.909091 270.693664 
L 390.136364 271.074291 
L 394.363636 272.382698 
L 398.590909 273.905208 
L 402.818182 275.118458 
L 407.045455 276.522022 
L 411.272727 277.830429 
L 415.5 279.067468 
L 419.727273 282.516905 
L 423.954545 283.373317 
L 428.181818 284.110783 
L 432.409091 285.70466 
L 436.636364 287.060646 
L 440.863636 288.654524 
L 445.090909 290.391137 
L 449.318182 290.914499 
L 453.545455 292.294274 
L 457.772727 293.62647 
L 462 294.292568 
L 466.227273 297.052118 
L 470.454545 298.598417 
L 474.681818 300.144716 
L 478.909091 301.976486 
L 483.136364 303.189736 
L 487.363636 304.355408 
L 491.590909 305.80655 
L 495.818182 308.304418 
L 500.045455 309.137041 
L 504.272727 310.302713 
L 508.5 311.753855 
L 512.727273 312.800581 
L 516.954545 314.465826 
L 521.181818 316.368963 
L 525.409091 318.343468 
L 529.636364 318.652728 
L 533.863636 319.794611 
L 538.090909 321.007861 
L 542.318182 322.982366 
L 546.545455 324.504876 
L 550.772727 326.170121 
L 555 327.906734 
L 559.227273 329.809872 
L 563.454545 333.497201 
L 567.681818 335.400338 
L 571.909091 336.447064 
L 576.136364 336.56601 
L 580.363636 337.636525 
L 584.590909 338.588094 
L 588.818182 339.373138 
L 593.045455 339.539662 
L 597.272727 341.157329 
L 601.5 341.276275 
L 605.727273 342.465736 
L 609.954545 343.702776 
L 614.181818 345.201496 
L 618.409091 346.200643 
L 622.636364 347.53284 
" clip-path="url(#p1b527f8e25)" style="fill: none; stroke: #fbc15e; stroke-width: 1.5; stroke-linecap: square"/>
   </g>
   <g id="line2d_34">
    <path d="M 115.363636 568.239955 
L 119.590909 540.248145 
L 123.818182 526.81261 
L 128.045455 517.726612 
L 132.272727 510.882094 
L 136.5 504.771394 
L 140.727273 499.087642 
L 144.954545 494.177735 
L 149.181818 489.72146 
L 153.409091 485.91895 
L 157.636364 482.756863 
L 161.863636 479.661486 
L 166.090909 476.619479 
L 170.318182 474.084472 
L 174.545455 471.883019 
L 178.772727 469.628197 
L 183 467.693587 
L 187.227273 465.71895 
L 191.454545 464.171262 
L 195.681818 462.356731 
L 199.909091 460.72899 
L 204.136364 459.541539 
L 208.363636 457.780377 
L 212.590909 456.272715 
L 216.818182 459.688303 
L 221.045455 463.744313 
L 225.272727 465.652239 
L 229.5 467.58685 
L 233.727273 468.720932 
L 237.954545 469.548144 
L 242.181818 470.281962 
L 246.409091 471.669545 
L 250.636364 472.363336 
L 254.863636 472.883679 
L 259.090909 473.457391 
L 263.318182 473.911024 
L 267.545455 474.471394 
L 271.772727 474.644842 
L 276 475.19187 
L 280.227273 476.179188 
L 284.454545 476.726216 
L 288.681818 476.93969 
L 292.909091 477.153164 
L 297.136364 477.433349 
L 301.363636 478.140482 
L 305.590909 478.380641 
L 309.818182 478.31393 
L 314.045455 479.087774 
L 318.272727 479.541407 
L 322.5 480.435331 
L 326.727273 481.342596 
L 330.954545 482.409967 
L 335.181818 482.583415 
L 339.409091 483.450654 
L 343.636364 484.064393 
L 347.863636 484.985 
L 352.090909 485.451975 
L 356.318182 486.546031 
L 360.545455 487.133085 
L 364.772727 487.893587 
L 369 487.693455 
L 373.227273 488.267167 
L 377.454545 488.774168 
L 381.681818 489.067695 
L 385.909091 489.814855 
L 390.136364 490.828858 
L 394.363636 491.095701 
L 398.590909 491.495965 
L 402.818182 491.65607 
L 407.045455 491.669413 
L 411.272727 491.96294 
L 415.5 492.123045 
L 419.727273 492.042993 
L 423.954545 492.576678 
L 428.181818 493.030311 
L 432.409091 493.764129 
L 436.636364 494.08434 
L 440.863636 494.391209 
L 445.090909 495.378528 
L 449.318182 495.792134 
L 453.545455 496.072319 
L 457.772727 496.01895 
L 462 496.899532 
L 466.227273 497.32648 
L 470.454545 498.473904 
L 474.681818 498.940879 
L 478.909091 498.794115 
L 483.136364 499.834802 
L 487.363636 500.101645 
L 491.590909 500.208382 
L 495.818182 500.728726 
L 500.045455 501.355806 
L 504.272727 501.716044 
L 508.5 502.43652 
L 512.727273 503.130311 
L 516.954545 504.024234 
L 521.181818 504.544578 
L 525.409091 506.025555 
L 529.636364 506.332425 
L 533.863636 506.61261 
L 538.090909 507.012874 
L 542.318182 507.172979 
L 546.545455 508.54722 
L 550.772727 508.814063 
L 555 508.854089 
L 559.227273 509.561223 
L 563.454545 510.201645 
L 567.681818 510.895437 
L 571.909091 511.482491 
L 576.136364 512.229651 
L 580.363636 512.9101 
L 584.590909 513.483812 
L 588.818182 513.65726 
L 593.045455 514.257656 
L 597.272727 514.938105 
L 601.5 515.391738 
L 605.727273 515.832028 
L 609.954545 516.15224 
L 614.181818 516.512478 
L 618.409091 516.792662 
L 622.636364 517.353032 
" clip-path="url(#p1b527f8e25)" style="fill: none; stroke: #8eba42; stroke-width: 1.5; stroke-linecap: square"/>
   </g>
   <g id="patch_3">
    <path d="M 90 640.8 
L 90 86.4 
" style="fill: none; stroke: #ffffff; stroke-linejoin: miter; stroke-linecap: square"/>
   </g>
   <g id="patch_4">
    <path d="M 648 640.8 
L 648 86.4 
" style="fill: none; stroke: #ffffff; stroke-linejoin: miter; stroke-linecap: square"/>
   </g>
   <g id="patch_5">
    <path d="M 90 640.8 
L 648 640.8 
" style="fill: none; stroke: #ffffff; stroke-linejoin: miter; stroke-linecap: square"/>
   </g>
   <g id="patch_6">
    <path d="M 90 86.4 
L 648 86.4 
" style="fill: none; stroke: #ffffff; stroke-linejoin: miter; stroke-linecap: square"/>
   </g>
   <g id="legend_1">
    <g id="patch_7">
     <path d="M 97 182.46875 
L 136.7 182.46875 
Q 138.7 182.46875 138.7 180.46875 
L 138.7 93.4 
Q 138.7 91.4 136.7 91.4 
L 97 91.4 
Q 95 91.4 95 93.4 
L 95 180.46875 
Q 95 182.46875 97 182.46875 
z
" style="fill: #e5e5e5; opacity: 0.8; stroke: #cccccc; stroke-width: 0.5; stroke-linejoin: miter"/>
    </g>
    <g id="line2d_35">
     <path d="M 99 99.498438 
L 109 99.498438 
L 119 99.498438 
" style="fill: none; stroke: #e24a33; stroke-width: 1.5; stroke-linecap: square"/>
    </g>
    <g id="text_16">
     <!-- A -->
     <g transform="translate(127 102.998438)scale(0.1 -0.1)">
      <defs>
       <path id="DejaVuSans-41" d="M 2188 4044 
L 1331 1722 
L 3047 1722 
L 2188 4044 
z
M 1831 4666 
L 2547 4666 
L 4325 0 
L 3669 0 
L 3244 1197 
L 1141 1197 
L 716 0 
L 50 0 
L 1831 4666 
z
" transform="scale(0.015625)"/>
      </defs>
      <use xlink:href="#DejaVuSans-41"/>
     </g>
    </g>
    <g id="line2d_36">
     <path d="M 99 114.176563 
L 109 114.176563 
L 119 114.176563 
" style="fill: none; stroke: #348abd; stroke-width: 1.5; stroke-linecap: square"/>
    </g>
    <g id="text_17">
     <!-- B -->
     <g transform="translate(127 117.676563)scale(0.1 -0.1)">
      <defs>
       <path id="DejaVuSans-42" d="M 1259 2228 
L 1259 519 
L 2272 519 
Q 2781 519 3026 730 
Q 3272 941 3272 1375 
Q 3272 1813 3026 2020 
Q 2781 2228 2272 2228 
L 1259 2228 
z
M 1259 4147 
L 1259 2741 
L 2194 2741 
Q 2656 2741 2882 2914 
Q 3109 3088 3109 3444 
Q 3109 3797 2882 3972 
Q 2656 4147 2194 4147 
L 1259 4147 
z
M 628 4666 
L 2241 4666 
Q 2963 4666 3353 4366 
Q 3744 4066 3744 3513 
Q 3744 3084 3544 2831 
Q 3344 2578 2956 2516 
Q 3422 2416 3680 2098 
Q 3938 1781 3938 1306 
Q 3938 681 3513 340 
Q 3088 0 2303 0 
L 628 0 
L 628 4666 
z
" transform="scale(0.015625)"/>
      </defs>
      <use xlink:href="#DejaVuSans-42"/>
     </g>
    </g>
    <g id="line2d_37">
     <path d="M 99 128.854688 
L 109 128.854688 
L 119 128.854688 
" style="fill: none; stroke: #988ed5; stroke-width: 1.5; stroke-linecap: square"/>
    </g>
    <g id="text_18">
     <!-- C -->
     <g transform="translate(127 132.354688)scale(0.1 -0.1)">
      <defs>
       <path id="DejaVuSans-43" d="M 4122 4306 
L 4122 3641 
Q 3803 3938 3442 4084 
Q 3081 4231 2675 4231 
Q 1875 4231 1450 3742 
Q 1025 3253 1025 2328 
Q 1025 1406 1450 917 
Q 1875 428 2675 428 
Q 3081 428 3442 575 
Q 3803 722 4122 1019 
L 4122 359 
Q 3791 134 3420 21 
Q 3050 -91 2638 -91 
Q 1578 -91 968 557 
Q 359 1206 359 2328 
Q 359 3453 968 4101 
Q 1578 4750 2638 4750 
Q 3056 4750 3426 4639 
Q 3797 4528 4122 4306 
z
" transform="scale(0.015625)"/>
      </defs>
      <use xlink:href="#DejaVuSans-43"/>
     </g>
    </g>
    <g id="line2d_38">
     <path d="M 99 143.532812 
L 109 143.532812 
L 119 143.532812 
" style="fill: none; stroke: #777777; stroke-width: 1.5; stroke-linecap: square"/>
    </g>
    <g id="text_19">
     <!-- D -->
     <g transform="translate(127 147.032812)scale(0.1 -0.1)">
      <defs>
       <path id="DejaVuSans-44" d="M 1259 4147 
L 1259 519 
L 2022 519 
Q 2988 519 3436 956 
Q 3884 1394 3884 2338 
Q 3884 3275 3436 3711 
Q 2988 4147 2022 4147 
L 1259 4147 
z
M 628 4666 
L 1925 4666 
Q 3281 4666 3915 4102 
Q 4550 3538 4550 2338 
Q 4550 1131 3912 565 
Q 3275 0 1925 0 
L 628 0 
L 628 4666 
z
" transform="scale(0.015625)"/>
      </defs>
      <use xlink:href="#DejaVuSans-44"/>
     </g>
    </g>
    <g id="line2d_39">
     <path d="M 99 158.210938 
L 109 158.210938 
L 119 158.210938 
" style="fill: none; stroke: #fbc15e; stroke-width: 1.5; stroke-linecap: square"/>
    </g>
    <g id="text_20">
     <!-- E -->
     <g transform="translate(127 161.710938)scale(0.1 -0.1)">
      <defs>
       <path id="DejaVuSans-45" d="M 628 4666 
L 3578 4666 
L 3578 4134 
L 1259 4134 
L 1259 2753 
L 3481 2753 
L 3481 2222 
L 1259 2222 
L 1259 531 
L 3634 531 
L 3634 0 
L 628 0 
L 628 4666 
z
" transform="scale(0.015625)"/>
      </defs>
      <use xlink:href="#DejaVuSans-45"/>
     </g>
    </g>
    <g id="line2d_40">
     <path d="M 99 172.889063 
L 109 172.889063 
L 119 172.889063 
" style="fill: none; stroke: #8eba42; stroke-width: 1.5; stroke-linecap: square"/>
    </g>
    <g id="text_21">
     <!-- F -->
     <g transform="translate(127 176.389063)scale(0.1 -0.1)">
      <defs>
       <path id="DejaVuSans-46" d="M 628 4666 
L 3309 4666 
L 3309 4134 
L 1259 4134 
L 1259 2759 
L 3109 2759 
L 3109 2228 
L 1259 2228 
L 1259 0 
L 628 0 
L 628 4666 
z
" transform="scale(0.015625)"/>
      </defs>
      <use xlink:href="#DejaVuSans-46"/>
     </g>
    </g>
   </g>
  </g>
 </g>
 <defs>
  <clipPath id="p1b527f8e25">
   <rect x="90" y="86.4" width="558" height="554.4"/>
  </clipPath>
 </defs>
</svg>
